<svg width="856" height="873" viewBox="0 0 856 873" fill="none" xmlns="http://www.w3.org/2000/svg">
<path d="M122.591 701.918L155.146 683.032L122.591 664.327L89.8571 645.441V720.982L122.591 701.918Z" stroke="#24D17A" stroke-width="7.91253" stroke-miterlimit="10" stroke-linecap="round" stroke-linejoin="round"/>
<path d="M163.599 726.02L196.333 707.134L163.599 688.248L130.864 669.543V744.904L163.599 726.02Z" stroke="#24D17A" stroke-width="1.58251" stroke-miterlimit="10"/>
<path d="M90.7702 209.737C90.7702 222.147 68.6467 219.988 68.6467 235.816" stroke="black" stroke-width="7.91253" stroke-miterlimit="10" stroke-linecap="round" stroke-linejoin="round"/>
<path d="M90.7702 157.397C90.7702 169.807 68.6467 167.648 68.6467 183.476" stroke="black" stroke-width="7.91253" stroke-miterlimit="10" stroke-linecap="round" stroke-linejoin="round"/>
<path d="M90.7702 209.737C90.7702 197.327 68.6467 199.482 68.6467 183.657" stroke="black" stroke-width="7.91253" stroke-miterlimit="10" stroke-linecap="round" stroke-linejoin="round"/>
<path d="M90.7702 157.397C90.7702 144.987 68.6467 147.142 68.6467 131.317" stroke="black" stroke-width="7.91253" stroke-miterlimit="10" stroke-linecap="round" stroke-linejoin="round"/>
<path d="M131.778 233.838C131.778 246.248 109.654 244.09 109.654 259.918" stroke="black" stroke-width="1.58251" stroke-miterlimit="10"/>
<path d="M131.778 181.498C131.778 193.908 109.654 191.75 109.654 207.578" stroke="black" stroke-width="1.58251" stroke-miterlimit="10"/>
<path d="M131.778 233.838C131.778 221.428 109.654 223.583 109.654 207.758" stroke="black" stroke-width="1.58251" stroke-miterlimit="10"/>
<path d="M131.778 181.498C131.778 169.088 109.654 171.247 109.654 155.419" stroke="black" stroke-width="1.58251" stroke-miterlimit="10"/>
<path d="M809.123 82.4196C809.123 94.8296 787 92.671 787 108.499" stroke="black" stroke-width="7.91253" stroke-miterlimit="10" stroke-linecap="round" stroke-linejoin="round"/>
<path d="M809.123 30.0797C809.123 42.4897 787 40.3311 787 56.1593" stroke="black" stroke-width="7.91253" stroke-miterlimit="10" stroke-linecap="round" stroke-linejoin="round"/>
<path d="M809.123 82.4195C809.123 70.0095 787 72.1648 787 56.3398" stroke="black" stroke-width="7.91253" stroke-miterlimit="10" stroke-linecap="round" stroke-linejoin="round"/>
<path d="M809.123 30.0797C809.123 17.6697 787 19.8251 787 4" stroke="black" stroke-width="7.91253" stroke-miterlimit="10" stroke-linecap="round" stroke-linejoin="round"/>
<path d="M850.131 106.521C850.131 118.931 828.008 116.772 828.008 132.601" stroke="black" stroke-width="1.58251" stroke-miterlimit="10"/>
<path d="M850.131 54.1813C850.131 66.5913 828.008 64.4327 828.008 80.261" stroke="black" stroke-width="1.58251" stroke-miterlimit="10"/>
<path d="M850.131 106.521C850.131 94.111 828.008 96.2663 828.008 80.4413" stroke="black" stroke-width="1.58251" stroke-miterlimit="10"/>
<path d="M850.131 54.1812C850.131 41.7712 828.008 43.9297 828.008 28.1015" stroke="black" stroke-width="1.58251" stroke-miterlimit="10"/>
<path d="M481.725 38.557L454.207 12.8365" stroke="#24D17A" stroke-width="7.91253" stroke-miterlimit="10" stroke-linecap="round" stroke-linejoin="round"/>
<path d="M455.106 39.4558L480.826 11.9376" stroke="#24D17A" stroke-width="7.91253" stroke-miterlimit="10" stroke-linecap="round" stroke-linejoin="round"/>
<path d="M821.507 289.144C838.195 289.144 851.723 275.615 851.723 258.927C851.723 242.239 838.195 228.711 821.507 228.711C804.819 228.711 791.29 242.239 791.29 258.927C791.29 275.615 804.819 289.144 821.507 289.144Z" stroke="#61FEAF" stroke-width="7.91253"/>
<path opacity="0.5" d="M277.925 823.774C270.567 828.189 258.498 828.189 250.847 823.774L10.0798 684.553C2.72113 680.138 2.72113 673.368 10.0798 668.953L529.582 369.025C536.94 364.61 549.008 364.61 556.66 369.025L797.425 508.246C804.784 512.661 804.784 519.431 797.425 523.847L277.925 823.774Z" fill="#F0F3F8"/>
<path d="M5.66462 425.244L0.955078 675.134C0.966093 676.251 1.39436 677.323 2.15571 678.14C2.91706 678.957 3.95645 679.46 5.06959 679.549C6.18629 679.538 7.25849 679.11 8.07548 678.349C8.89247 677.587 9.39517 676.548 9.48478 675.435L20.6699 425.839C20.7437 424.865 20.6165 423.886 20.296 422.964C19.9755 422.041 19.4687 421.195 18.807 420.476C18.1453 419.758 17.343 419.183 16.4498 418.788C15.5566 418.393 14.5917 418.186 13.6151 418.18C11.6262 418.07 9.67447 418.751 8.18566 420.074C6.69685 421.397 5.79175 423.256 5.66778 425.244H5.66462Z" fill="#EDF1F4"/>
<path d="M786.242 266.303L797.427 515.899C797.501 517.006 798.002 518.041 798.825 518.785C799.648 519.529 800.729 519.923 801.837 519.885C802.946 519.847 803.997 519.379 804.766 518.58C805.536 517.781 805.965 516.714 805.963 515.605L801.253 265.715C801.206 263.727 800.375 261.838 798.941 260.46C797.508 259.082 795.588 258.326 793.6 258.356C791.601 258.518 789.736 259.425 788.374 260.897C787.011 262.368 786.25 264.298 786.242 266.303Z" fill="#EDF1F4"/>
<path d="M254.966 566.82L258.204 822.597C258.228 823.68 258.669 824.713 259.436 825.479C260.202 826.246 261.235 826.687 262.319 826.711C262.862 826.724 263.403 826.626 263.908 826.423C264.412 826.221 264.871 825.918 265.255 825.534C265.64 825.149 265.943 824.691 266.145 824.186C266.347 823.681 266.445 823.14 266.433 822.597L269.683 566.82C269.719 565.831 269.555 564.845 269.201 563.922C268.847 562.998 268.311 562.155 267.624 561.443C266.937 560.731 266.114 560.165 265.204 559.778C264.293 559.391 263.314 559.192 262.325 559.192C261.336 559.192 260.357 559.391 259.446 559.778C258.536 560.165 257.712 560.731 257.025 561.443C256.339 562.155 255.802 562.998 255.449 563.922C255.095 564.845 254.931 565.831 254.966 566.82Z" fill="#EDF1F4"/>
<path d="M555.777 471.455C555.777 471.455 496.026 421.131 496.026 427.01C497.792 464.096 528.403 620.093 506.328 652.177C501.324 659.241 491.611 671.604 488.373 680.432C487.196 683.964 495.437 687.202 503.385 686.908C503.679 664.832 552.245 658.358 554.599 658.652C540.767 613.912 564.607 513.25 555.777 471.455Z" fill="#FE9661"/>
<path d="M476.894 658.945L501.029 677.195C501.029 677.195 509.565 678.078 524.28 661.594C546.06 670.425 550.181 655.707 550.181 655.707C550.181 655.707 562.249 653.941 558.717 676.606C558.234 679.744 556.912 682.693 554.891 685.142L548.121 712.22L541.94 715.752L535.758 713.103L533.404 692.205C530.124 692.045 526.87 691.552 523.69 690.733C523.69 690.733 513.388 708.982 496.906 701.918C481.015 694.559 461.295 669.542 476.894 658.945Z" fill="black"/>
<path d="M477.777 653.648C462.176 664.251 482.192 689.263 498.675 696.327C515.159 703.097 525.459 685.142 525.459 685.142C525.459 685.142 557.247 693.972 560.19 671.308C562.248 655.413 552.537 646.584 552.537 646.584C552.537 646.584 542.235 643.346 525.459 656.592C513.685 665.717 496.321 669.543 496.321 669.543L506.623 652.177L477.777 653.648Z" fill="#DCE4EA"/>
<path opacity="0.5" d="M539.001 789.337C540.178 786.688 544.593 784.333 549.008 783.45C550.572 783.071 552.214 783.174 553.718 783.745L554.012 784.039L561.96 788.749L669.391 777.269L622.592 720.755C621.123 721.473 619.429 721.579 617.882 721.049C613.467 720.46 609.052 717.811 607.874 715.162C607.729 714.913 607.636 714.637 607.602 714.351C607.568 714.065 607.593 713.775 607.676 713.498C607.759 713.222 607.898 712.966 608.084 712.746C608.27 712.526 608.499 712.346 608.757 712.219L613.467 709.275L610.523 705.743L613.173 703.977L616.41 707.509L616.999 707.215L617.293 706.92C618.794 706.333 620.441 706.23 622.003 706.626C626.418 707.215 630.833 709.864 632.011 712.513C632.155 712.723 632.254 712.96 632.302 713.21C632.351 713.46 632.347 713.717 632.292 713.965C632.237 714.214 632.131 714.448 631.981 714.654C631.832 714.86 631.641 715.033 631.422 715.162L631.128 715.456L626.418 718.106L679.105 774.03L754.454 732.823L750.627 730.468H750.333C750.114 730.339 749.923 730.166 749.774 729.96C749.624 729.754 749.519 729.52 749.463 729.271C749.408 729.023 749.405 728.766 749.453 728.516C749.501 728.266 749.6 728.029 749.744 727.819C750.922 725.464 755.337 722.815 759.752 721.932C761.325 721.703 762.929 721.803 764.462 722.226H764.756L769.171 724.581L772.115 723.109C773.028 723.632 773.829 724.332 774.47 725.167L772.115 726.638L772.998 727.227C773.881 727.816 774.175 728.699 773.881 730.171C772.703 732.82 768.288 735.174 763.873 736.057C762.3 736.301 760.694 736.201 759.163 735.763L758.575 735.469L687.046 779.03L788.009 810.522L792.719 807.873L793.013 807.579C794.517 807.008 796.159 806.905 797.723 807.284C802.138 807.873 806.553 810.522 807.731 812.877C807.875 813.087 807.974 813.324 808.022 813.574C808.071 813.824 808.067 814.081 808.012 814.329C807.957 814.578 807.851 814.812 807.701 815.018C807.552 815.224 807.361 815.397 807.142 815.526L806.848 815.821L798.312 820.53C796.744 821.238 794.996 821.444 793.308 821.119C788.892 820.53 784.477 817.881 783.3 815.232C783.145 815.009 783.044 814.754 783.005 814.485C782.966 814.217 782.991 813.943 783.076 813.686C783.162 813.428 783.307 813.194 783.499 813.003C783.691 812.811 783.925 812.668 784.183 812.583H784.477L682.342 784.327L658.796 857.914C659.292 857.983 659.784 858.081 660.268 858.208H660.562L668.804 862.917C669.308 863.194 669.683 863.658 669.848 864.208C670.014 864.759 669.956 865.353 669.687 865.861C668.51 868.51 664.094 870.865 659.679 871.748C658.008 871.975 656.309 871.875 654.675 871.453L646.139 866.45H645.845C645.626 866.32 645.436 866.147 645.286 865.941C645.137 865.736 645.031 865.501 644.976 865.253C644.921 865.004 644.917 864.747 644.965 864.498C645.014 864.248 645.113 864.01 645.256 863.8C646.434 861.446 650.26 859.091 654.087 858.208L671.149 783.45L563.129 791.692V791.986C561.952 794.635 557.536 796.99 553.121 797.873C551.432 798.175 549.691 797.97 548.117 797.285L539.581 792.575L539.287 792.281C538.952 791.874 538.746 791.377 538.695 790.853C538.644 790.328 538.75 789.801 539.001 789.337Z" fill="#77A1AF"/>
<path d="M538.706 791.398L549.009 773.443L559.899 779.918L549.892 797.579L538.706 791.398Z" fill="black"/>
<path d="M561.665 784.333C561.665 779.624 558.428 777.858 554.307 780.219C552.158 781.588 550.368 783.451 549.088 785.654C547.808 787.857 547.074 790.334 546.948 792.879C546.948 797.588 550.186 799.355 554.307 796.993C556.456 795.625 558.245 793.761 559.525 791.558C560.806 789.355 561.54 786.878 561.665 784.333Z" fill="#2D2949"/>
<path d="M551.069 778.447C551.069 773.737 547.831 771.971 543.71 774.332C541.561 775.701 539.772 777.565 538.492 779.767C537.211 781.97 536.478 784.447 536.352 786.992C536.352 791.702 539.59 793.468 543.71 791.107C545.809 789.684 547.56 787.808 548.834 785.616C550.108 783.424 550.872 780.974 551.069 778.447Z" fill="black"/>
<path d="M559.906 785.511C559.906 782.273 557.551 780.801 554.608 782.567C553.058 783.552 551.767 784.895 550.845 786.483C549.923 788.071 549.396 789.858 549.309 791.692C549.309 794.93 551.664 796.402 554.608 794.636C556.14 793.632 557.416 792.284 558.336 790.7C559.256 789.116 559.793 787.339 559.906 785.511Z" fill="#C7CAD8"/>
<path d="M654.703 847.705L644.41 865.554L655.374 871.877L665.667 854.028L654.703 847.705Z" fill="black"/>
<path d="M667.333 858.505C667.333 853.796 664.095 852.03 659.974 854.391C657.825 855.76 656.035 857.623 654.755 859.826C653.475 862.029 652.741 864.506 652.615 867.051C652.615 871.761 655.853 873.527 659.974 871.165C662.123 869.797 663.912 867.933 665.193 865.73C666.473 863.528 667.207 861.05 667.333 858.505Z" fill="#2D2949"/>
<path d="M656.736 852.619C656.736 847.909 653.498 846.143 649.377 848.504C647.228 849.873 645.439 851.737 644.158 853.939C642.878 856.142 642.144 858.619 642.019 861.164C642.019 865.874 645.256 867.64 649.377 865.279C651.476 863.856 653.227 861.98 654.501 859.788C655.775 857.596 656.539 855.146 656.736 852.619Z" fill="black"/>
<path d="M665.278 859.683C665.278 856.445 662.923 854.973 659.98 856.739C658.43 857.724 657.14 859.067 656.218 860.655C655.296 862.243 654.769 864.03 654.682 865.864C654.682 869.102 657.036 870.574 659.98 868.808C661.53 867.823 662.82 866.479 663.742 864.891C664.664 863.303 665.191 861.517 665.278 859.683Z" fill="#C7CAD8"/>
<path d="M755.043 727.822L765.05 709.867L776.236 716.343L765.934 734.003L755.043 727.822Z" fill="black"/>
<path d="M778.002 720.758C778.002 716.048 774.764 714.282 770.643 716.643C768.494 718.012 766.705 719.876 765.424 722.079C764.144 724.281 763.41 726.759 763.284 729.303C763.284 734.013 766.522 735.779 770.643 733.418C772.792 732.049 774.581 730.185 775.862 727.983C777.142 725.78 777.876 723.302 778.002 720.758Z" fill="#2D2949"/>
<path d="M767.405 714.577C767.405 709.867 764.168 708.101 760.047 710.462C757.898 711.831 756.108 713.695 754.828 715.897C753.548 718.1 752.814 720.577 752.688 723.122C752.688 727.832 755.926 729.598 760.047 727.237C762.196 725.868 763.985 724.004 765.265 721.801C766.546 719.599 767.28 717.121 767.405 714.577Z" fill="black"/>
<path d="M775.948 721.935C775.948 718.697 773.593 717.226 770.649 718.992C769.123 720.003 767.851 721.352 766.931 722.934C766.011 724.517 765.468 726.29 765.345 728.116C765.345 731.649 767.699 732.826 770.643 731.06C772.169 730.049 773.441 728.7 774.361 727.117C775.281 725.535 775.824 723.761 775.948 721.935Z" fill="#C7CAD8"/>
<path d="M616.116 694.855L626.418 712.516L615.233 718.697L604.931 701.037L616.116 694.855Z" fill="black"/>
<path d="M610.524 718.107C614.638 720.462 617.882 718.401 617.882 713.993C617.757 711.448 617.023 708.971 615.742 706.768C614.462 704.565 612.673 702.701 610.524 701.333C606.409 698.978 603.165 701.038 603.165 705.447C603.459 710.161 606.403 715.751 610.524 718.107Z" fill="#2D2949"/>
<path d="M621.12 711.92C625.234 714.274 628.478 712.214 628.478 707.805C628.353 705.26 627.619 702.783 626.339 700.58C625.058 698.378 623.269 696.514 621.12 695.145C617.005 692.79 614.056 694.556 614.056 699.259C614.124 701.783 614.803 704.253 616.033 706.457C617.263 708.662 619.008 710.536 621.12 711.92Z" fill="black"/>
<path d="M610.524 715.752C613.467 717.518 615.822 716.047 615.822 712.809C615.699 710.983 615.157 709.21 614.238 707.628C613.319 706.045 612.048 704.696 610.524 703.684C607.58 701.918 605.225 703.39 605.225 706.628C605.276 708.47 605.787 710.27 606.713 711.864C607.638 713.458 608.949 714.795 610.524 715.752Z" fill="#C7CAD8"/>
<path d="M627.007 705.748L619.06 710.163C618.615 707.951 617.736 705.849 616.473 703.979C615.21 702.11 613.588 700.51 611.701 699.272C610.714 698.708 609.6 698.404 608.463 698.389L615.233 694.563C615.272 694.563 615.311 694.556 615.347 694.542C615.383 694.527 615.416 694.506 615.443 694.478C615.471 694.451 615.492 694.418 615.507 694.382C615.521 694.346 615.528 694.307 615.528 694.268C616.955 694.163 618.383 694.469 619.642 695.151C623.208 697.765 625.8 701.494 627.007 705.748Z" fill="#C7CAD8"/>
<path d="M755.043 721.345L762.99 726.054C763.434 723.842 764.314 721.74 765.577 719.871C766.84 718.001 768.462 716.401 770.349 715.164C771.336 714.6 772.45 714.296 773.587 714.281L766.522 710.166H766.228C764.794 709.913 763.318 710.23 762.113 711.049C758.557 713.482 756.036 717.153 755.043 721.345Z" fill="#C7CAD8"/>
<path d="M538.118 785.218L546.065 789.633C546.509 787.421 547.389 785.319 548.652 783.45C549.915 781.58 551.537 779.98 553.424 778.742C554.411 778.178 555.525 777.875 556.661 777.859L549.892 774.033L549.597 773.738C548.169 773.633 546.741 773.94 545.483 774.622C543.603 775.799 541.981 777.344 540.715 779.166C539.449 780.987 538.566 783.046 538.118 785.218Z" fill="#C7CAD8"/>
<path d="M643.489 858.801L651.731 863.511C652.175 861.299 653.054 859.197 654.318 857.327C655.581 855.458 657.203 853.858 659.089 852.62C660.076 852.056 661.19 851.752 662.327 851.737L655.557 847.623C655.518 847.623 655.48 847.616 655.444 847.602C655.407 847.587 655.375 847.566 655.347 847.538C655.32 847.511 655.298 847.478 655.283 847.442C655.269 847.406 655.262 847.367 655.263 847.328C653.835 847.223 652.407 847.529 651.148 848.211C647.415 850.716 644.698 854.471 643.489 858.801Z" fill="#C7CAD8"/>
<path d="M800.076 798.166L810.378 815.827L799.193 822.302L788.891 804.642L800.076 798.166Z" fill="black"/>
<path d="M794.484 821.419C798.598 823.774 801.842 822.008 801.842 817.305C801.749 814.793 801.027 812.344 799.741 810.184C798.455 808.024 796.647 806.222 794.484 804.942C790.369 802.588 787.125 804.354 787.125 809.057C787.291 811.551 788.044 813.971 789.323 816.12C790.602 818.268 792.37 820.084 794.484 821.419Z" fill="#2D2949"/>
<path d="M805.078 815.532C809.193 817.887 812.437 816.121 812.437 811.418C812.311 808.873 811.577 806.396 810.297 804.193C809.017 801.99 807.227 800.127 805.078 798.758C801.252 796.403 798.014 798.464 798.014 802.872C798.02 805.409 798.671 807.902 799.907 810.117C801.143 812.332 802.923 814.196 805.078 815.532Z" fill="black"/>
<path d="M794.484 819.359C797.427 821.125 799.782 819.653 799.782 816.416C799.659 814.59 799.117 812.817 798.198 811.234C797.279 809.652 796.008 808.303 794.484 807.291C791.54 805.525 789.185 806.996 789.185 810.234C789.308 812.06 789.85 813.833 790.769 815.415C791.688 816.998 792.959 818.347 794.484 819.359Z" fill="#C7CAD8"/>
<path d="M810.378 809.941L802.431 814.357C801.987 812.145 801.107 810.043 799.844 808.173C798.581 806.304 796.959 804.704 795.072 803.466C794.085 802.902 792.971 802.598 791.834 802.583L798.899 798.756L799.193 798.462C800.621 798.357 802.049 798.663 803.308 799.345C806.698 802.066 809.167 805.767 810.378 809.941Z" fill="#C7CAD8"/>
<path d="M546.948 779.035V779.918L670.569 764.907H671.158L652.326 856.151H654.084L680.279 765.79L800.367 804.642C800.367 804.347 800.662 804.347 800.662 804.053C800.956 803.759 800.956 803.464 801.251 803.17L684.697 760.783L687.347 759.311L767.406 715.749C767.111 715.749 766.817 715.455 766.522 715.455C766.228 715.16 765.639 714.866 765.345 714.572L677.927 756.956L616.705 697.799C616.116 697.799 615.528 698.093 614.939 698.093H614.35L667.625 756.962L669.683 759.317L546.948 779.035Z" fill="#BDBACB"/>
<path d="M546.654 778.741V779.624L670.863 762.251L670.274 764.9L651.442 855.85H652.914L679.992 762.84L800.375 803.752C800.67 803.458 800.67 803.164 800.964 802.869C801.124 802.711 801.227 802.504 801.258 802.281L687.057 759.013L684.408 757.836L766.527 714.863C766.233 714.569 765.644 714.274 765.35 713.98C765.234 713.868 765.094 713.784 764.941 713.733C764.789 713.682 764.626 713.666 764.467 713.686L677.927 754.022L617.294 697.21C616.999 697.21 616.999 697.21 616.705 697.504C616.116 697.504 615.528 697.799 614.939 697.799L669.686 756.668L667.628 756.962L546.654 778.741Z" fill="#C7CAD8"/>
<path d="M667.331 759.315C667.528 760.123 667.892 760.881 668.398 761.54C668.905 762.199 669.544 762.744 670.274 763.142C672.22 764.077 674.31 764.674 676.456 764.908C679.322 765.241 682.219 764.62 684.697 763.142C685.611 762.619 686.411 761.92 687.052 761.085C688.524 759.027 687.641 756.375 684.697 754.903C681.397 753.325 677.66 752.91 674.095 753.726C672.917 754.02 671.74 754.609 670.562 754.903C668.214 755.783 667.037 757.549 667.331 759.315Z" fill="black"/>
<path d="M677.633 741.949C679.874 741.949 682.087 741.446 684.108 740.477C684.991 739.889 685.58 739.594 685.875 739.006C686.061 738.756 686.186 738.466 686.237 738.158C686.288 737.851 686.265 737.536 686.169 737.24C686.005 736.727 685.738 736.254 685.384 735.849C685.03 735.444 684.597 735.116 684.112 734.885H683.817L683.523 734.59C681.591 733.693 679.468 733.289 677.342 733.413C676.254 733.365 675.165 733.464 674.104 733.707H673.809C672.673 733.92 671.579 734.317 670.572 734.885C669.5 735.462 668.666 736.398 668.214 737.528C668.284 738.192 668.543 738.822 668.96 739.344C669.378 739.865 669.936 740.257 670.569 740.471C672.22 741.307 674.021 741.807 675.867 741.943H677.633V741.949Z" fill="black"/>
<path d="M667.331 759.314H687.935L686.463 737.534H668.803L667.331 759.314Z" fill="black"/>
<path d="M677.634 741.655C679.423 741.761 681.192 741.24 682.638 740.183C683.184 739.865 683.68 739.468 684.11 739.006C684.348 738.554 684.45 738.043 684.404 737.534C683.996 736.712 683.389 736.005 682.638 735.477H682.05C680.586 734.741 678.978 734.339 677.34 734.299C676.543 734.232 675.741 734.332 674.985 734.594H674.691C673.889 734.839 673.102 735.134 672.336 735.477C670.279 736.948 670.279 739.009 672.336 740.186C673.965 741.079 675.779 741.582 677.634 741.655Z" fill="#BDBACB"/>
<path d="M682.343 577.71H673.218V736.945H682.343V577.71Z" fill="black"/>
<path d="M505.445 421.123C481.016 430.836 485.135 466.451 554.894 508.835C624.358 551.221 603.459 444.376 603.459 444.376C603.459 444.376 543.12 406.407 505.445 421.123Z" fill="#FE9661"/>
<path d="M495.732 508.246C495.732 508.246 435.981 457.62 435.981 463.802C437.747 500.888 468.357 656.885 446.283 688.968C441.279 696.033 431.566 708.395 428.328 717.224C427.151 720.756 435.392 723.994 443.34 723.7C443.634 701.625 492.199 695.15 494.554 695.444C480.722 650.998 504.562 550.042 495.732 508.246Z" fill="#FE9661"/>
<path d="M472.48 603.022C472.48 603.022 536.056 640.403 571.672 662.773C590.216 674.547 601.693 677.785 613.766 669.543C613.766 669.543 780.654 567.408 788.896 562.7C793.492 559.827 797.328 555.889 800.081 551.221C799.198 550.043 784.186 559.462 778.007 556.225C743.57 538.858 639.963 495.298 639.963 495.298C636.529 493.338 632.715 492.133 628.778 491.766C621.714 490.883 614.061 492.06 608.762 495.298L472.779 577.418C461.295 584.48 461.295 596.253 472.48 603.022Z" fill="#C7CAD8"/>
<path d="M789.185 554.457L781.827 558.572L623.769 653.943L619.06 656.886L617.588 658.064L613.761 660.121C611.364 661.865 608.672 663.161 605.814 663.947C605.655 664.107 605.449 664.211 605.225 664.242C603.478 664.583 601.706 664.78 599.927 664.83C591.98 664.83 583.153 660.716 571.671 653.645C536.057 630.982 472.48 593.6 472.48 593.6C469.191 592.012 466.58 589.296 465.121 585.947C462.472 579.766 465.121 573.287 472.774 568.287L481.899 562.694L604.048 488.816L608.757 485.873C613.366 483.37 618.525 482.055 623.769 482.046H624.358C625.934 481.988 627.511 482.087 629.067 482.341C632.872 482.89 636.555 484.085 639.958 485.873L641.724 486.756L647.611 489.699L647.906 489.994L668.804 499.712L693.233 511.486L705.596 517.373L758.282 542.693L756.516 543.576C763.286 547.69 776.826 547.991 784.477 550.934H784.772C786.354 551.962 787.832 553.142 789.185 554.457Z" fill="#5D546E"/>
<path d="M789.185 554.457L781.827 558.572L623.769 653.943L619.06 656.886L617.588 658.064L613.761 660.121C611.364 661.865 608.672 663.161 605.814 663.947C605.655 664.107 605.449 664.211 605.225 664.242C603.478 664.583 601.706 664.78 599.927 664.83C591.98 664.83 583.153 660.716 571.671 653.645C536.057 630.982 472.48 593.6 472.48 593.6C469.191 592.012 466.58 589.296 465.121 585.947C462.472 579.766 465.121 573.287 472.774 568.287L481.899 562.694L604.048 488.816L608.757 485.873C613.366 483.37 618.525 482.055 623.769 482.046H624.358C625.934 481.988 627.511 482.087 629.067 482.341C632.872 482.89 636.555 484.085 639.958 485.873L641.724 486.756L647.611 489.699L647.906 489.994L668.804 499.712L693.233 511.486L705.596 517.373L758.282 542.693L756.516 543.576C763.286 547.69 776.826 547.991 784.477 550.934H784.772C786.354 551.962 787.832 553.142 789.185 554.457Z" fill="#EDF1F4"/>
<path d="M784.77 551.219C776.823 547.981 763.284 547.687 756.514 543.861C756.514 543.566 758.281 542.977 758.281 542.977L705.594 517.657L693.232 511.77L668.804 500.006L647.906 490.293L647.611 489.998L641.724 487.055L639.958 486.172C636.555 484.384 632.872 483.189 629.067 482.64C627.509 482.404 625.933 482.305 624.358 482.345H623.769C618.497 482.105 613.272 483.437 608.757 486.172L604.048 489.115L481.899 562.993L472.774 568.586C465.121 573.295 462.472 580.065 465.121 586.246C466.762 589.47 469.323 592.134 472.48 593.899C472.48 593.899 536.057 631.28 571.671 653.944C583.151 661.009 591.981 665.129 599.927 665.129C601.707 665.095 603.481 664.898 605.225 664.541C605.449 664.51 605.655 664.406 605.814 664.246C608.718 663.586 611.435 662.278 613.761 660.42L617.588 658.363L619.06 657.185L623.769 654.242L781.827 558.877L789.185 554.762C787.991 553.272 786.484 552.062 784.77 551.219ZM603.165 652.465C598.843 652.397 594.562 651.601 590.505 650.11C586.015 648.276 581.764 645.904 577.845 643.046C567.543 636.276 554.593 628.034 541.642 620.383C525.453 610.669 508.971 600.661 496.903 593.599C486.012 587.123 478.653 583.297 478.359 582.996C477.643 582.549 476.956 582.058 476.302 581.524C476.89 581.23 477.479 580.347 478.951 579.467L484.838 576.229L614.934 497.347C617.863 495.916 621.094 495.21 624.353 495.29H627.591C629.941 495.62 632.225 496.314 634.361 497.347L634.655 497.642L635.244 497.936L639.07 499.702L645.252 502.351V502.646L693.228 525.309L720.606 538.554L744.446 550.034L744.152 550.623L750.039 554.737L750.333 555.031H750.922C753.638 556.778 756.621 558.07 759.752 558.858C747.092 566.217 733.557 574.458 720.017 582.698C694.411 598.299 667.919 614.19 647.611 626.26C639.958 630.97 632.6 635.385 626.713 638.92C625.83 640.686 625.241 643.035 623.769 644.513C623.475 644.807 623.475 645.101 623.18 645.101C620.666 648.25 617.292 650.602 613.467 651.871C609.935 652.177 606.697 652.465 603.165 652.465Z" fill="#FAFCFF"/>
<path d="M726.491 583.009C723.297 588.794 719.113 593.975 714.129 598.315C708.732 603.394 702.696 607.748 696.174 611.266C690.021 614.952 683.512 618.009 676.747 620.391C676.452 620.685 676.452 620.685 676.158 620.685C668.114 623.755 659.849 626.215 651.435 628.044C644.065 629.719 636.593 630.899 629.066 631.576C627.212 631.813 625.342 631.911 623.473 631.87C595.806 634.225 567.255 630.987 542.826 622.451C534.113 619.621 525.727 615.871 517.808 611.266C509.944 606.886 502.797 601.327 496.616 594.782C491.322 589.583 487.119 583.379 484.254 576.533C483.665 574.767 483.077 573.589 482.488 571.823C481.57 568.967 481.074 565.992 481.016 562.993L606.697 487.055C619.324 487.085 631.926 488.168 644.372 490.293C646.429 490.881 648.787 491.176 650.847 491.764H651.142C658.755 493.337 666.234 495.502 673.511 498.24C681.294 500.789 688.791 504.143 695.879 508.248C696.762 508.837 697.936 509.425 698.823 510.014C702.46 512.058 705.908 514.422 709.125 517.078C714.371 521.026 718.943 525.798 722.665 531.207C724.243 532.954 725.535 534.941 726.491 537.094C735.325 552.397 735.027 568.291 726.491 583.009Z" fill="#EDE9EE"/>
<path d="M448.051 438.195C428.624 444.082 430.979 467.334 452.76 494.708C468.949 515.018 494.262 537.387 523.989 555.342C593.451 597.726 542.821 463.215 542.821 463.215C542.821 463.215 486.314 426.421 448.051 438.195Z" fill="#FE9661"/>
<path d="M416.85 696.031L440.985 714.281C440.985 714.281 449.521 715.164 464.237 698.68C486.017 707.511 490.138 692.793 490.138 692.793C490.138 692.793 502.206 691.027 498.674 713.692C498.19 716.83 496.868 719.779 494.847 722.228L488.077 749.306L481.896 752.838L475.715 750.189L473.36 729.291C470.081 729.131 466.826 728.638 463.647 727.819C463.647 727.819 453.344 746.068 436.863 739.004C420.971 731.351 401.252 706.333 416.85 696.031Z" fill="black"/>
<path d="M417.733 690.735C402.133 701.337 422.148 726.349 438.632 733.413C455.115 740.183 465.416 722.228 465.416 722.228C465.416 722.228 497.204 731.058 500.147 708.394C502.204 692.499 492.494 683.67 492.494 683.67C492.494 683.67 482.192 680.432 465.416 693.678C453.642 702.803 436.277 706.629 436.277 706.629L446.579 689.263L417.733 690.735Z" fill="#EDF1F4"/>
<path d="M597.573 441.139C611.112 441.727 624.95 446.437 637.308 452.324L637.896 452.029C637.896 452.029 650.848 448.203 734.439 451.735C803.901 557.695 690.287 631.868 612.879 608.615C535.763 585.069 512.215 555.046 512.215 555.046C484.843 528.262 527.521 452.912 597.573 441.139Z" fill="#2D2949"/>
<path d="M807.728 258.356H800.958V266.009H807.728V258.356Z" fill="#EDF1F4"/>
<path d="M526.638 117.076L6.84355 417.298C-2.28118 422.596 -2.28118 431.132 6.84355 436.431L247.609 575.652C256.734 580.95 271.744 580.95 280.869 575.652L800.665 275.428C809.789 270.13 809.789 261.594 800.665 256.296L559.898 117.076C550.773 111.778 535.763 111.778 526.638 117.076Z" fill="#EDF1F4"/>
<path d="M5.0759 419.358H0.0720215V426.717H5.0759V419.358Z" fill="#EDF1F4"/>
<path d="M277.925 566.525C270.567 570.94 258.498 570.94 250.847 566.525L10.0798 427.304C2.72113 422.889 2.72113 416.119 10.0798 411.704L529.582 111.776C536.94 107.361 549.008 107.361 556.66 111.776L797.721 250.703C805.08 255.118 805.08 261.888 797.721 266.303L277.925 566.525Z" fill="#FAFCFF"/>
<path d="M532.819 113.544C538.412 110.306 547.831 110.306 553.718 113.544L794.483 252.765C800.076 256.003 800.076 261.595 794.483 264.833L274.982 564.759C269.389 567.997 259.97 567.997 254.083 564.759L13.3176 425.538C7.725 422.3 7.725 416.708 13.3176 413.47L532.819 113.544ZM526.638 110.012L6.84355 409.939C-2.28118 415.238 -2.28118 423.774 6.84355 429.072L247.609 568.293C256.734 573.591 271.744 573.591 280.869 568.293L800.665 268.364C809.789 263.066 809.789 254.53 800.665 249.231L559.898 110.012C550.773 104.714 535.763 104.714 526.638 110.012Z" fill="#EDF1F4"/>
<path opacity="0.3" d="M587.859 261.594L685.284 318.107L556.953 392.279H524.578L435.1 337.532L587.859 261.594Z" fill="#B8C3DB"/>
<path d="M653.202 301.329L645.255 306.333L653.496 311.337L653.202 301.329Z" fill="#C4E4F9"/>
<path d="M435.1 337.532L524.283 391.396L583.74 355.781L494.556 301.918L435.1 336.06V337.532Z" fill="url(#paint0_linear_1030_3)"/>
<path d="M435.1 336.06L524.283 389.924L583.74 354.015L494.556 300.152L435.1 336.06Z" fill="url(#paint1_linear_1030_3)"/>
<path d="M652.614 298.385V310.454L654.38 311.042V312.808L600.221 345.774C599.633 346.068 599.338 346.362 598.75 346.362C604.637 336.649 614.939 327.53 622.885 319.873C629.655 313.397 626.122 313.397 633.187 306.921C639.957 304.272 646.138 301.329 652.614 298.385Z" fill="#FFC000"/>
<path d="M653.497 310.454L654.674 311.042L600.516 344.302L600.81 343.124L653.497 311.337V310.454Z" fill="#486DFF"/>
<path d="M601.988 343.124V343.419C601.988 345.185 597.572 349.306 592.568 352.544L591.685 353.132C586.387 356.37 582.266 357.247 582.266 355.487C582.266 355.193 582.266 355.193 582.561 354.898C583.119 354.599 583.618 354.2 584.032 353.721C584.44 353.398 584.779 352.997 585.032 352.543C585.285 352.088 585.445 351.588 585.504 351.072C587.454 349.362 589.519 347.788 591.685 346.362L592.568 345.774C594.142 344.723 595.819 343.835 597.572 343.124L597.867 343.419C598.474 343.874 599.225 344.095 599.982 344.041C600.739 343.987 601.451 343.661 601.988 343.124Z" fill="url(#paint2_linear_1030_3)"/>
<g opacity="0.3">
<path d="M593.157 350.779C593.157 350.779 584.916 355.194 583.444 354.311V352.254C585.828 349.009 588.958 346.384 592.569 344.601L593.452 344.012C596.984 341.955 599.927 343.424 601.693 343.424C599.293 346.349 596.405 348.837 593.157 350.779Z" fill="#F1F4F8"/>
</g>
<path d="M526.049 370.793L462.178 336.062L437.454 317.222H437.749C440.692 315.456 456.881 305.448 474.835 294.853C494.556 283.079 503.974 286.317 503.974 286.317L591.98 339.301L526.049 370.793Z" fill="#ACDAEF"/>
<path d="M602.576 340.77C602.282 343.419 597.572 347.245 592.274 350.189L591.391 350.778C588.809 352.238 586.035 353.328 583.149 354.015C582.266 354.015 581.972 353.132 581.972 352.544C581.972 352.249 582.855 351.366 582.561 351.072C584.97 348.235 587.86 345.844 591.097 344.008L591.98 343.419C597.572 340.475 602.871 339.004 602.576 340.77Z" fill="url(#paint3_linear_1030_3)"/>
<path d="M591.685 339.298V348.423L525.166 388.452V370.203C525.166 370.203 542.827 359.6 562.547 347.834C582.562 336.06 591.685 339.298 591.685 339.298Z" fill="#C4E4F9"/>
<path d="M591.685 339.3C587.119 338.469 582.449 338.37 577.851 339.005C555.777 341.654 534.878 358.138 523.693 364.612C519.579 362.257 437.159 310.159 437.159 310.159C444.517 308.982 453.053 303.389 471.007 292.793C476.548 289.437 482.62 287.048 488.962 285.729C498.087 284.257 503.385 286.317 503.385 286.317C503.385 286.317 585.799 335.473 591.685 339.3Z" fill="#F1F4F8"/>
<path d="M471.303 292.494C473.895 290.831 476.658 289.452 479.544 288.379C509.272 304.863 538.414 322.816 566.962 341.066C549.007 346.658 532.819 359.021 523.695 364.317C519.868 361.966 437.16 309.867 437.16 309.867C444.813 308.984 453.349 303.391 471.303 292.494Z" fill="#F7F9FC"/>
<path d="M503.687 286.319C503.687 286.319 585.512 335.767 591.693 339.594C591.534 339.614 591.371 339.597 591.219 339.547C591.066 339.496 590.926 339.411 590.81 339.299C587.598 338.801 584.346 338.604 581.097 338.711L493.084 285.141C496.662 284.681 500.298 285.085 503.687 286.319Z" fill="#E3EEFA"/>
<path d="M565.49 239.814L653.496 292.794V301.036L645.255 306.04L591.98 339.005L511.626 290.44L503.973 285.73C503.973 285.73 511.626 274.545 530.169 261.007C541.313 252.942 553.13 245.852 565.49 239.814Z" fill="#D2EBF9"/>
<path d="M653.202 293.087V311.337L591.685 348.423L591.097 344.308L591.685 339.304C591.685 339.304 599.338 328.119 617.881 314.581C628.989 306.376 640.81 299.183 653.202 293.087Z" fill="#C4E4F9"/>
<path d="M564.018 238.931C547.535 252.176 514.576 258.358 503.973 286.025C511.921 290.734 586.093 335.473 591.98 339.3C598.455 320.756 650.259 287.496 650.259 287.496C650.259 287.496 571.081 243.346 564.018 238.931Z" fill="#F1F4F8"/>
<path d="M555.188 244.818C566.962 250.116 579.029 255.42 590.508 261.301C606.697 269.248 622 278.373 637.602 287.202C627.3 295.149 592.274 328.409 591.685 339.3C577.557 330.764 511.038 290.734 503.679 286.025C512.804 262.478 537.822 254.531 555.188 244.818Z" fill="#BFE0EF"/>
<path opacity="0.1" d="M632.009 312.808L653.497 298.68V301.329L632.009 312.808Z" fill="black"/>
<path opacity="0.1" d="M653.497 303.389L642.606 310.454L653.497 304.861V303.389Z" fill="black"/>
<path d="M525.166 370.204V388.753L437.454 335.473V317.224L525.166 370.204Z" fill="#F1F4F8"/>
<path opacity="0.2" d="M591.687 341.947L573.732 352.249L591.393 344.302L591.687 341.947Z" fill="black"/>
<path opacity="0.2" d="M604.051 333.411L591.689 341.947L591.394 344.302L604.051 333.411Z" fill="black"/>
<path opacity="0.1" d="M525.165 382.567L554.305 364.612L525.461 379.623L503.385 367.261L525.165 382.567Z" fill="black"/>
<path opacity="0.1" d="M437.454 323.699L448.057 331.352L437.454 326.348V323.699Z" fill="black"/>
<path d="M546.652 227.746C536.939 248.35 505.736 263.654 503.679 286.025C511.627 290.734 585.799 335.473 591.685 339.3C586.976 313.98 629.949 291.912 635.541 274.547C626.122 269.541 554.003 232.161 546.652 227.746Z" fill="#F7F9FC"/>
<path d="M500.149 291.323C489.258 291.911 480.133 297.798 470.714 303.983C465.71 307.221 460.706 310.458 455.114 313.402L454.525 311.93C460.117 309.281 465.128 305.749 470.125 302.805C479.25 296.919 487.786 291.326 498.087 290.145L500.149 291.323Z" fill="black"/>
<path d="M506.624 295.444C495.439 296.327 486.02 302.213 475.72 308.689C471.096 311.834 466.279 314.685 461.297 317.225L460.708 315.753C465.558 313.148 470.274 310.299 474.836 307.217C484.55 301.036 493.668 295.149 504.271 293.972L506.624 295.444Z" fill="black"/>
<path d="M513.1 299.27C501.326 300.153 491.32 306.629 480.429 313.399C476.314 316.048 472.187 318.697 467.769 321.052L467.18 319.58C471.445 317.269 475.573 314.714 479.543 311.927C489.845 305.452 499.558 299.267 510.742 297.799L513.1 299.27Z" fill="black"/>
<path d="M519.574 303.097C507.212 303.98 496.028 311.338 484.254 318.697C481.016 320.754 477.778 322.812 474.246 324.878L473.363 323.407C476.895 321.349 480.133 319.292 483.371 317.225C494.556 310.161 505.445 303.097 517.219 301.625L519.574 303.097Z" fill="black"/>
<path d="M526.048 306.923C512.508 308.1 500.728 315.753 486.902 324.878C484.844 326.35 482.787 327.527 480.72 328.993L479.837 327.521C481.895 326.344 483.952 324.872 486.019 323.694C498.679 315.453 510.742 307.8 523.988 305.739L526.048 306.923Z" fill="black"/>
<path d="M532.525 311.044C517.219 312.516 502.503 322.524 486.903 332.824L486.02 331.352C501.032 321.346 515.454 311.927 530.172 309.572L532.527 311.044H532.525Z" fill="black"/>
<path d="M539.001 314.869C524.578 316.635 510.156 324.877 493.379 336.649L492.496 335.472C508.685 323.992 522.812 316.045 536.94 313.692L538.998 314.869H539.001Z" fill="black"/>
<path d="M545.476 318.695C532.231 320.461 517.221 327.526 499.56 340.475L498.677 339.298C515.451 326.937 530.169 319.873 543.122 317.518L544.888 318.695H545.476Z" fill="black"/>
<path d="M551.952 322.522C537.529 324.579 521.636 331.941 506.035 344.302L505.152 343.125C520.458 331.351 535.763 323.992 549.891 321.345L551.363 322.228L551.952 322.522Z" fill="black"/>
<path d="M558.428 326.643C547.537 328.409 530.466 333.413 512.511 348.423L511.628 347.245C528.995 333.118 545.476 327.523 556.662 325.465L558.133 326.348L558.428 326.643Z" fill="black"/>
<path d="M564.901 330.469C547.87 333.42 531.925 340.834 518.692 351.955L517.809 350.778C530.682 339.799 546.209 332.391 562.841 329.292L564.901 330.469Z" fill="black"/>
<path d="M571.377 334.296C552.545 337.828 537.529 344.899 525.168 355.781L524.285 354.604C536.353 343.713 551.363 336.649 569.613 333.118L571.377 334.296Z" fill="black"/>
<path d="M551.362 240.108C549.993 242.499 548.417 244.764 546.652 246.878C543.709 250.116 540.176 253.354 536.644 256.886C528.991 264.245 520.161 272.192 515.451 282.206L514.274 281.323C518.983 271.021 527.814 262.779 535.761 255.422C539.216 252.409 542.462 249.164 545.475 245.709C547.422 243.673 549.103 241.398 550.478 238.939L551.362 240.108Z" fill="black"/>
<path d="M557.543 243.64C556.176 246.194 554.495 248.568 552.539 250.705C549.595 253.942 546.358 257.18 542.825 260.418C535.172 267.777 526.342 276.018 521.632 286.319L520.455 285.436C525.165 275.134 533.995 266.604 541.941 259.241C545.298 256.326 548.445 253.178 551.36 249.822C553.24 247.73 554.916 245.463 556.364 243.052L557.543 243.64Z" fill="black"/>
<path d="M563.724 247.172C562.347 249.796 560.558 252.181 558.426 254.237C555.777 257.475 552.244 260.418 549.007 263.656C541.059 271.014 532.232 279.55 527.521 289.851L526.344 288.968C531.053 278.365 540.178 269.835 548.124 262.478C551.361 259.241 554.599 256.297 557.248 253.354C559.2 251.144 560.972 248.782 562.546 246.289L563.724 247.172Z" fill="black"/>
<path d="M570.2 250.705C568.731 253.359 566.953 255.829 564.902 258.063C562.253 261.007 559.015 264.244 555.777 267.188C547.83 274.547 539.002 283.083 534.291 293.678L533.114 292.794C537.823 281.904 546.948 273.368 554.894 266.011C557.983 263.216 560.93 260.269 563.724 257.18C565.868 255.023 567.657 252.539 569.023 249.822L570.2 250.705Z" fill="black"/>
<path d="M576.379 254.237C574.9 256.96 573.014 259.441 570.787 261.595C567.992 264.684 565.045 267.631 561.956 270.426C554.011 278.077 544.886 286.608 540.471 297.211L539.293 296.328C544.003 285.437 553.127 276.607 561.073 268.951C564.017 266.007 567.255 263.064 569.609 260.415C571.68 258.126 573.551 255.664 575.202 253.056L576.379 254.237Z" fill="black"/>
<path d="M582.561 257.769C580.991 260.522 579.115 263.09 576.968 265.422C574.319 268.365 571.376 271.014 568.432 273.958C560.485 281.611 551.36 290.441 546.946 301.335L545.769 300.452C550.479 289.267 559.603 280.437 567.549 272.785C570.493 269.842 573.436 267.193 575.791 264.544C578.029 262.288 579.915 259.708 581.383 256.891L582.561 257.769Z" fill="black"/>
<path d="M589.036 261.301C587.465 264.219 585.483 266.895 583.149 269.248C580.551 272.141 577.8 274.892 574.908 277.49C566.666 285.143 557.541 293.973 553.128 305.157L551.95 304.274C556.66 293.089 565.785 283.964 574.025 276.313C576.819 273.813 579.472 271.16 581.972 268.365C584.138 265.978 586.107 263.418 587.859 260.712L589.036 261.301Z" fill="black"/>
<path d="M595.217 264.832C593.546 267.685 591.573 270.349 589.331 272.779C586.976 275.428 584.032 278.077 581.383 281.021C573.142 288.968 564.017 297.795 559.603 308.982L558.131 308.099C562.841 296.619 571.966 287.495 580.206 279.549L587.859 271.896C590.192 269.543 592.175 266.866 593.746 263.949L595.217 264.832Z" fill="black"/>
<path d="M601.399 268.364C599.653 271.333 597.579 274.097 595.218 276.605C592.863 279.255 590.214 281.904 587.565 284.553C579.323 292.5 570.198 301.625 565.785 313.103L564.607 312.22C569.022 300.446 578.442 291.321 586.682 283.375C589.331 280.726 591.98 278.371 594.04 276.017C596.469 273.566 598.549 270.793 600.222 267.775L601.399 268.364Z" fill="black"/>
<path d="M607.874 271.896C606.202 274.914 604.122 277.687 601.693 280.138L594.04 287.787C585.799 295.735 576.379 304.86 571.966 316.632L570.788 315.749C575.204 303.975 584.623 294.557 593.157 286.61C595.734 284.38 598.099 281.917 600.221 279.251C602.583 276.743 604.656 273.979 606.403 271.01L607.874 271.896Z" fill="black"/>
<path d="M614.056 275.428C612.281 278.545 610.104 281.415 607.58 283.964C605.523 286.319 602.871 288.674 600.221 291.323C591.98 299.565 582.561 308.689 578.147 320.462L576.675 319.578C581.09 307.51 590.51 298.387 599.044 290.144L606.108 283.08C608.632 280.531 610.809 277.661 612.584 274.544L614.056 275.428Z" fill="black"/>
<path d="M620.235 278.96C618.47 282.172 616.293 285.141 613.76 287.791C611.555 290.29 609.195 292.65 606.695 294.855C598.159 303.097 588.74 312.516 584.621 324.582L583.149 323.699C587.564 311.337 596.984 302.212 605.518 293.677C607.873 291.323 610.228 289.262 612.288 286.907C614.744 284.301 616.915 281.439 618.764 278.371L620.235 278.96Z" fill="black"/>
<path d="M473.363 297.503L495.732 312.808L475.127 328.114L450.111 311.337L473.363 297.503Z" fill="#F7F9FC"/>
<path d="M455.997 310.159C460.412 307.805 470.714 301.035 470.714 301.035L490.435 313.695L476.307 323.408L455.997 310.159Z" fill="black"/>
<path opacity="0.3" d="M319.427 403.169L378.588 437.312L462.768 388.746L403.606 354.604L319.427 403.169Z" fill="#B8C3DB"/>
<path d="M320.31 402.875L379.472 437.018L463.651 388.452L404.489 354.015L320.31 402.875Z" fill="#F1F4F8"/>
<path opacity="0.3" d="M481.018 396.399L421.856 430.542L337.382 381.976L396.838 347.834L481.018 396.399Z" fill="#B8C3DB"/>
<path d="M481.312 395.516L422.15 429.953L337.97 381.093L397.132 346.951L481.312 395.516Z" fill="#F7F9FC"/>
<path d="M399.191 354.898L355.335 380.505L357.69 381.682L401.842 356.362L399.191 354.898Z" fill="black"/>
<path d="M405.963 358.725L361.811 384.331L364.46 385.509L408.316 360.189L405.963 358.725Z" fill="black"/>
<path d="M412.733 362.551L368.581 388.158L370.936 389.63L415.087 364.023L412.733 362.551Z" fill="black"/>
<path d="M419.503 366.378L375.351 391.984L377.705 393.456L421.857 367.85L419.503 366.378Z" fill="black"/>
<path d="M425.975 370.499L382.119 395.819L384.474 397.29L428.626 371.684L425.975 370.499Z" fill="black"/>
<path d="M432.747 374.325L388.595 399.645L391.244 401.117L435.1 375.51L432.747 374.325Z" fill="black"/>
<path d="M439.517 378.15L395.365 403.47L397.72 404.942L441.871 379.622L439.517 378.15Z" fill="black"/>
<path d="M446.287 381.977L402.135 407.583L404.489 408.76L448.641 383.44L446.287 381.977Z" fill="black"/>
<path d="M452.761 385.803L408.905 411.41L411.259 412.587L455.411 387.267L452.761 385.803Z" fill="black"/>
<path d="M459.532 389.63L415.38 415.236L418.029 416.708L461.885 391.101L459.532 389.63Z" fill="black"/>
<path opacity="0.3" d="M392.423 431.719L342.385 478.225L249.375 449.969L299.412 403.169L392.423 431.719Z" fill="#B8C3DB"/>
<path d="M392.717 431.131L342.68 477.636L249.67 449.086L299.707 402.581L392.717 431.131Z" fill="#F7F9FC"/>
<path d="M303.533 409.645L266.447 444.376L269.097 445.259L306.183 410.528L303.533 409.645Z" fill="black"/>
<path d="M310.892 412L273.806 446.731L276.455 447.614L313.541 412.883L310.892 412Z" fill="black"/>
<path d="M318.251 414.355L281.165 449.086L283.814 449.675L320.9 414.943L318.251 414.355Z" fill="black"/>
<path d="M325.608 416.415L288.522 451.146L291.171 452.029L328.559 417.298L325.608 416.415Z" fill="black"/>
<path d="M333.261 418.77L295.88 453.501L298.529 454.384L335.918 419.653L333.261 418.77Z" fill="black"/>
<path d="M340.62 421.125L303.239 455.856L305.888 456.739L343.277 422.008L340.62 421.125Z" fill="black"/>
<path d="M347.978 423.185L310.598 457.916L313.247 458.799L350.635 424.068L347.978 423.185Z" fill="black"/>
<path d="M355.337 425.54L317.956 460.271L320.605 461.154L357.994 426.423L355.337 425.54Z" fill="black"/>
<path d="M362.695 427.895L325.315 462.626L328.259 463.509L365.352 428.778L362.695 427.895Z" fill="black"/>
<path d="M370.053 429.955L332.967 464.686L335.616 465.569L372.702 430.838L370.053 429.955Z" fill="black"/>
<path d="M426.269 385.216L429.507 384.039L437.16 381.389L432.745 375.208L428.33 381.095L426.272 383.744L426.269 385.216Z" fill="#EDD9E0"/>
<path d="M435.688 381.095C434.854 380.646 434.131 380.017 433.571 379.253C433.011 378.489 432.628 377.61 432.451 376.68C432.411 376.037 432.622 375.404 433.039 374.914L477.191 341.654L481.606 347.836L437.454 381.095C437.183 381.242 436.88 381.319 436.571 381.319C436.263 381.319 435.959 381.242 435.688 381.095Z" fill="#FFC000"/>
<path d="M432.451 376.68C432.411 376.037 432.622 375.404 433.039 374.914L477.191 341.654L479.248 344.303L433.332 378.74C433.045 378.481 432.817 378.163 432.665 377.807C432.513 377.451 432.439 377.067 432.451 376.68Z" fill="#FFC931"/>
<path d="M479.544 347.836C479.833 347.989 480.157 348.061 480.483 348.045C480.809 348.028 481.124 347.924 481.396 347.743C481.667 347.562 481.885 347.311 482.025 347.016C482.166 346.722 482.224 346.394 482.193 346.069C481.975 345.155 481.575 344.294 481.019 343.536C480.464 342.777 479.762 342.138 478.956 341.654C478.667 341.501 478.343 341.429 478.017 341.445C477.691 341.462 477.376 341.566 477.104 341.747C476.832 341.928 476.615 342.179 476.475 342.474C476.334 342.768 476.276 343.095 476.306 343.42C476.484 344.351 476.867 345.23 477.427 345.993C477.987 346.757 478.71 347.386 479.544 347.836Z" fill="#EDD9E0"/>
<path d="M479.543 346.362C480.426 346.657 481.015 346.362 480.72 345.479C480.72 344.596 479.837 343.713 478.954 343.124C478.071 342.83 477.483 343.124 477.777 344.008C478.071 344.891 478.66 346.068 479.543 346.362Z" fill="#5F6E82"/>
<path d="M426.269 385.216L429.507 384.039C429.083 383.62 428.758 383.112 428.554 382.552C428.35 381.992 428.274 381.394 428.33 380.801L426.272 383.45L426.269 385.216Z" fill="#5F6E82"/>
<path d="M726.786 262.183C719.133 261.3 712.657 224.802 717.072 209.202C717.072 209.202 651.436 174.471 666.152 227.746C680.575 279.843 675.571 281.609 658.205 294.853C723.247 332.242 743.563 294.262 726.786 262.183Z" fill="#FFB288"/>
<path d="M733.556 451.146C740.914 456.445 749.156 467.921 739.443 479.402C716.191 506.779 627.89 515.311 622.886 481.459C639.075 459.972 637.898 410.231 627.89 399.34C616.411 386.977 605.227 379.324 600.812 357.245C599.34 350.77 601.695 343.705 606.699 335.758C612.479 325.724 620.062 316.843 629.068 309.563C641.728 299.555 659.089 284.839 683.814 272.771C704.123 263.058 722.666 259.231 733.852 260.703C739.036 261.301 744.098 262.689 748.863 264.817C748.863 264.817 755.045 268.932 756.222 274.236C756.221 274.275 756.228 274.314 756.243 274.35C756.257 274.386 756.279 274.419 756.306 274.446C756.334 274.474 756.367 274.496 756.403 274.51C756.439 274.525 756.477 274.532 756.516 274.531C780.944 359.902 695.292 422.889 733.556 451.146Z" fill="#0E356B"/>
<path d="M556.66 409.05C559.309 410.227 561.958 411.405 564.313 412.582C554.305 423.185 589.036 449.668 553.128 457.616C550.479 456.144 534.878 444.37 532.524 442.898C526.342 438.483 521.338 434.362 516.923 430.83C508.093 423.471 485.135 406.107 466.599 388.152C470.426 381.382 482.494 382.265 486.321 375.491C507.514 386.382 527.528 395.507 545.777 404.336C549.89 406.111 553.128 407.583 556.66 409.05Z" fill="#FFB288"/>
<path d="M551.069 414.06L552.541 409.056L558.133 403.169C558.133 403.169 611.114 318.99 624.064 311.337C637.013 303.684 647.021 306.921 651.731 311.631C674.394 334 639.368 375.501 639.368 375.501C639.368 375.501 578.442 452.028 562.547 454.677C551.069 434.369 548.417 432.022 551.069 414.06Z" fill="url(#paint4_linear_1030_3)"/>
<path d="M418.618 364.317C425.388 355.193 451.877 355.193 458.059 358.725C465.712 363.14 478.369 364.612 489.55 378.446L484.841 393.458C472.773 400.522 459.823 390.22 453.349 389.925C444.813 391.692 423.914 395.224 423.914 386.982C430.684 385.51 437.749 384.627 444.813 383.155C440.74 382.206 436.611 381.519 432.451 381.098C426.858 380.51 417.733 379.921 417.145 378.449C415.378 373.74 414.495 371.974 415.087 367.558C423.327 365.2 420.973 367.261 418.618 364.317Z" fill="#FFB288"/>
<path d="M795.955 539.741C797.427 537.387 798.899 535.032 800.07 532.971C806.545 520.311 808.9 505.594 808.9 490.293C808.9 477.047 809.195 464.392 809.783 457.033C813.021 429.072 838.333 352.544 839.511 349.013C842.16 339.3 838.628 320.169 817.731 332.238C791.535 347.544 692.933 409.939 679.103 418.184C665.269 426.132 661.737 441.436 661.737 441.436C660.559 445.263 659.679 449.383 658.499 454.096C649.963 487.061 637.013 538.57 634.364 562.999C633.388 574.154 633.093 585.358 633.481 596.548C633.481 612.149 623.473 644.231 623.473 644.231C622.297 645.997 795.955 539.741 795.955 539.741Z" fill="#FAFCFF"/>
<path d="M624.064 656.297L800.076 551.219C800.076 551.219 803.02 546.804 804.191 544.449V544.155C810.666 531.495 813.021 517.077 813.021 501.476C813.021 488.231 813.315 475.575 813.904 468.217C814.493 463.213 815.67 457.031 816.848 449.673C823.618 414.942 837.746 360.195 838.628 357.255C841.571 347.247 842.454 331.354 821.853 343.42C795.363 359.021 697.055 421.121 683.226 429.366C669.391 437.313 665.859 452.618 665.859 452.618C664.976 456.444 663.802 460.565 662.621 465.278C655.851 491.473 646.432 529.148 641.43 555.639C640.253 562.703 639.075 568.885 638.487 574.183C637.519 585.241 637.225 596.348 637.603 607.442C637.603 623.043 629.95 648.649 614.057 660.129C618.765 661.007 624.064 656.297 624.064 656.297Z" fill="black"/>
<path d="M642.312 550.631L818.03 444.672C824.8 409.941 839.223 355.194 839.81 352.254C842.459 342.541 843.636 326.353 823.035 338.42C796.546 353.726 698.237 416.121 684.408 424.366C670.573 432.313 667.041 447.617 667.041 447.617C666.158 451.444 664.984 455.565 663.804 460.277C656.734 486.466 647.315 523.847 642.312 550.631Z" fill="#2EAA83"/>
<path d="M593.453 593.603C593.453 577.709 582.268 558.283 568.435 550.336L510.745 517.077C507.652 515.117 504.101 514.001 500.443 513.839C498.069 513.804 495.765 514.642 493.967 516.193L489.552 511.778C492.517 509.055 496.418 507.581 500.443 507.664C505.144 507.842 509.714 509.261 513.689 511.778L571.379 545.038C586.979 553.868 599.34 575.648 599.34 593.603L593.159 597.43V593.603H593.453Z" fill="#F8F8F9"/>
<path d="M593.452 655.414V597.43L599.633 593.603V666.009L594.629 668.953L590.214 653.647L593.452 655.414Z" fill="#C7CAD8"/>
<path d="M489.555 511.778L493.97 516.194C490.733 518.843 488.967 523.552 488.967 529.733V566.525C488.967 582.42 500.152 601.845 513.984 609.792L590.511 653.944L592.277 662.186L511.041 615.092C495.735 606.262 483.08 584.482 483.08 566.527V529.733C482.784 521.786 485.431 515.605 489.555 511.778Z" fill="#BDBACD"/>
<path d="M506.034 617.738C490.733 608.909 478.073 587.128 478.073 569.176V532.381C478.073 519.135 485.137 510.307 495.734 510.307C500.435 510.485 505.005 511.904 508.979 514.421L566.669 547.681C582.27 556.511 594.631 578.291 594.631 596.246V668.652L506.034 617.738ZM483.96 532.381V569.176C483.96 585.071 495.145 604.496 508.978 612.443L588.736 658.36V596.553C588.736 580.659 577.551 561.233 563.718 553.286L506.028 520.026C502.935 518.067 499.383 516.95 495.726 516.789C488.375 516.782 483.96 522.669 483.96 532.381Z" fill="#D8DAE6"/>
<path opacity="0.3" d="M390.066 197.135L223.177 293.677C220.528 295.149 220.528 297.792 223.177 299.564L330.028 361.083C331.596 361.81 333.303 362.187 335.032 362.187C336.76 362.187 338.468 361.81 340.035 361.083L499.558 268.952C500.563 268.337 501.389 267.47 501.957 266.438C502.525 265.406 502.814 264.243 502.796 263.065C502.756 261.865 502.411 260.694 501.793 259.664C501.175 258.634 500.305 257.779 499.264 257.179L390.066 197.135Z" fill="#B8C3DB"/>
<path d="M502.209 258.063L503.681 256.591V260.418C503.612 260.966 503.417 261.491 503.11 261.951C502.804 262.411 502.394 262.793 501.915 263.067L338.265 357.543C336.853 358.269 335.289 358.648 333.702 358.648C332.115 358.648 330.551 358.269 329.14 357.543L232.597 301.924C231.546 301.462 230.636 300.727 229.964 299.795C229.291 298.864 228.879 297.77 228.771 296.626V292.799L230.243 293.388C230.973 292.73 231.761 292.138 232.597 291.622L387.123 202.144C389.946 200.693 393.074 199.936 396.248 199.936C399.421 199.936 402.55 200.693 405.372 202.144L501.62 257.772C501.911 257.772 501.911 258.063 502.209 258.063Z" fill="#99A9C6"/>
<path d="M501.62 253.946L405.372 198.316C402.549 196.865 399.421 196.108 396.247 196.108C393.074 196.108 389.945 196.865 387.123 198.316L314.717 240.108L284.106 257.769L273.804 263.656L232.597 287.495C231.494 288.113 230.499 288.908 229.654 289.85V290.438C229.654 290.733 229.359 290.733 229.359 291.027C229.359 291.321 229.065 291.321 229.065 291.616C228.476 293.97 229.654 296.325 232.597 298.091L328.845 353.721C330.257 354.446 331.821 354.825 333.408 354.825C334.995 354.825 336.559 354.446 337.97 353.721L485.431 268.663L496.322 262.482L501.914 259.244C504.268 257.769 504.268 255.414 501.62 253.946Z" fill="#D4DEEC"/>
<path d="M428.037 286.908C428.626 286.613 428.626 286.025 428.037 285.436L402.136 270.424C401.427 269.991 400.612 269.762 399.781 269.762C398.95 269.762 398.136 269.991 397.427 270.424L378.595 281.315L370.647 286.025L367.998 287.496L357.396 293.678C357.101 293.972 356.807 293.972 356.512 294.266V294.561C356.218 295.149 356.512 295.738 357.396 296.327L383.296 311.338C384.054 311.633 384.894 311.633 385.651 311.338L424.21 289.267L427.154 287.795L428.037 286.908Z" fill="#B8C3DB"/>
<path d="M393.598 66.4503L395.656 66.1559L392.418 64.0987C391.899 63.8608 391.328 63.7627 390.76 63.8144C390.192 63.866 389.647 64.0655 389.18 64.393L225.533 158.87C224.165 159.716 223.021 160.881 222.201 162.265C221.381 163.649 220.908 165.211 220.824 166.818V281.902C220.728 283.028 220.921 284.159 221.384 285.189C221.848 286.22 222.567 287.114 223.473 287.789L226.711 289.846L227.005 288.375C228.015 288.059 228.999 287.666 229.948 287.197L384.474 198.013C387.096 196.294 389.284 193.991 390.867 191.284C392.451 188.578 393.385 185.541 393.598 182.413V67.039C393.598 66.7446 393.598 66.7446 393.598 66.4503Z" fill="#D4DEEC"/>
<path d="M397.131 69.0994V184.184C397.131 190.071 393.016 197.135 388.006 199.784L315.6 241.58L284.99 259.241L274.687 265.128L233.481 288.968C232.407 289.621 231.199 290.023 229.948 290.145H228.182C225.828 289.555 224.356 287.498 224.356 283.67V168.584C224.446 167.012 224.89 165.481 225.654 164.105C226.419 162.729 227.484 161.543 228.771 160.636L376.232 75.575L387.123 69.3938L392.715 66.156C395.07 64.9786 397.131 66.156 397.131 69.0994Z" fill="#B8C3DB"/>
<path d="M229.948 276.9L391.244 183.595V73.2202L229.948 166.525V276.9Z" fill="url(#paint5_linear_1030_3)"/>
<path d="M316.777 255.413L307.947 260.416L305.298 258.945L314.128 253.941L316.777 255.413Z" fill="black"/>
<path d="M322.664 261.888L316.483 265.42L310.302 261.888L316.483 258.356L322.664 261.888Z" fill="black"/>
<path d="M325.314 250.409L319.132 253.941L316.777 252.469L322.959 248.937L325.314 250.409Z" fill="black"/>
<path d="M334.438 245.11L328.257 248.642L325.608 247.171L332.083 243.639L334.438 245.11Z" fill="black"/>
<path d="M343.561 239.812L337.38 243.344L334.731 241.873L340.912 238.34L343.561 239.812Z" fill="black"/>
<path d="M352.392 234.514L346.21 238.34L343.856 236.869L350.037 233.042L352.392 234.514Z" fill="black"/>
<path d="M361.516 229.51L355.335 233.042L352.686 231.57L359.162 228.038L361.516 229.51Z" fill="black"/>
<path d="M370.641 224.212L364.46 227.744L361.811 226.272L367.992 222.74L370.641 224.212Z" fill="black"/>
<path d="M379.47 218.915L373.288 222.742L370.934 221.27L377.115 217.443L379.47 218.915Z" fill="black"/>
<path d="M388.595 213.911L382.413 217.443L379.764 215.972L386.24 212.44L388.595 213.911Z" fill="black"/>
<path d="M397.719 208.613L391.538 212.145L388.889 210.674L395.07 207.141L397.719 208.613Z" fill="black"/>
<path d="M406.844 203.315L400.368 206.847L398.014 205.375L404.195 201.843L406.844 203.315Z" fill="black"/>
<path d="M334.438 265.715L325.608 270.719L319.427 267.186L328.257 261.888L334.438 265.715Z" fill="black"/>
<path d="M348.565 268.069L334.731 276.017L328.55 272.19L342.384 264.243L348.565 268.069Z" fill="black"/>
<path d="M353.275 276.015L344.15 281.313L337.674 277.487L347.093 272.189L353.275 276.015Z" fill="black"/>
<path d="M330.906 256.884L325.019 260.416L318.838 256.884L324.725 253.352L330.906 256.884Z" fill="black"/>
<path d="M339.44 252.175L333.553 255.707L327.078 252.175L333.259 248.643L339.44 252.175Z" fill="black"/>
<path d="M347.976 247.171L341.795 250.703L335.614 247.171L341.501 243.639L347.976 247.171Z" fill="black"/>
<path d="M356.218 242.461L350.331 245.993L344.15 242.167L350.037 238.929L356.218 242.461Z" fill="black"/>
<path d="M364.754 237.457L358.867 240.989L352.392 237.457L358.573 233.925L364.754 237.457Z" fill="black"/>
<path d="M373.29 232.748L367.109 236.28L360.928 232.453L366.815 228.921L373.29 232.748Z" fill="black"/>
<path d="M381.53 227.744L375.643 231.276L369.462 227.744L375.349 224.212L381.53 227.744Z" fill="black"/>
<path d="M390.066 223.036L383.885 226.568L377.704 222.742L383.885 219.209L390.066 223.036Z" fill="black"/>
<path d="M398.602 218.032L392.421 221.564L386.24 218.032L392.127 214.5L398.602 218.032Z" fill="black"/>
<path d="M406.844 213.323L400.957 216.56L394.482 213.028L400.663 209.496L406.844 213.323Z" fill="black"/>
<path d="M357.69 262.771L351.803 266.303L345.328 262.477L351.509 259.239L357.69 262.771Z" fill="black"/>
<path d="M366.226 257.767L360.045 261.299L353.863 257.767L360.045 254.235L366.226 257.767Z" fill="black"/>
<path d="M374.762 253.058L368.581 256.59L362.399 252.763L368.286 249.231L374.762 253.058Z" fill="black"/>
<path d="M383.002 248.054L377.115 251.586L370.64 248.054L376.821 244.522L383.002 248.054Z" fill="black"/>
<path d="M391.538 243.344L385.357 246.876L379.176 243.05L385.357 239.518L391.538 243.344Z" fill="black"/>
<path d="M400.074 238.34L393.893 241.873L387.711 238.34L393.598 234.808L400.074 238.34Z" fill="black"/>
<path d="M408.316 233.631L402.429 236.869L395.953 233.337L402.135 229.804L408.316 233.631Z" fill="black"/>
<path d="M416.852 228.627L410.671 232.159L404.49 228.627L410.671 225.095L416.852 228.627Z" fill="black"/>
<path d="M425.386 223.919L419.205 227.157L413.024 223.625L418.911 220.093L425.386 223.919Z" fill="black"/>
<path d="M433.628 218.915L427.447 222.447L421.265 218.915L427.152 215.383L433.628 218.915Z" fill="black"/>
<path d="M415.38 208.319L409.199 211.851L403.017 208.319L409.199 204.787L415.38 208.319Z" fill="black"/>
<path d="M343.267 260.416L337.38 263.948L330.904 260.122L337.086 256.59L343.267 260.416Z" fill="black"/>
<path d="M351.803 255.413L345.621 258.945L339.44 255.413L345.621 251.88L351.803 255.413Z" fill="black"/>
<path d="M360.339 250.703L354.158 254.235L347.976 250.409L353.863 246.877L360.339 250.703Z" fill="black"/>
<path d="M368.581 245.699L362.694 249.231L356.218 245.699L362.399 242.167L368.581 245.699Z" fill="black"/>
<path d="M377.117 240.99L370.935 244.522L364.754 240.695L370.935 237.163L377.117 240.99Z" fill="black"/>
<path d="M385.357 235.986L379.47 239.518L373.289 235.986L379.176 232.454L385.357 235.986Z" fill="black"/>
<path d="M393.893 231.276L388.006 234.514L381.53 230.982L387.712 227.45L393.893 231.276Z" fill="black"/>
<path d="M402.429 226.272L396.248 229.804L390.067 226.272L395.953 222.74L402.429 226.272Z" fill="black"/>
<path d="M410.671 221.27L404.784 224.802L398.602 221.27L404.489 217.738L410.671 221.27Z" fill="black"/>
<path d="M424.505 213.617L413.025 220.093L406.844 216.266L418.029 209.79L424.505 213.617Z" fill="black"/>
<path d="M361.516 271.011L355.629 274.543L349.448 270.717L355.335 267.185L361.516 271.011Z" fill="black"/>
<path d="M357.69 266.007L364.166 269.54L420.674 236.869L414.502 233.337L357.69 266.007Z" fill="black"/>
<path d="M429.213 231.865L423.031 235.397L416.85 231.865L422.737 228.333L429.213 231.865Z" fill="black"/>
<path d="M442.753 224.213L431.568 230.689L425.092 226.863L436.571 220.387L442.753 224.213Z" fill="black"/>
<path d="M248.492 294.853L242.311 298.385L239.662 296.914L246.137 293.382L248.492 294.853Z" fill="black"/>
<path d="M257.323 289.555L251.141 293.382L248.492 291.91L254.968 288.083L257.323 289.555Z" fill="black"/>
<path d="M266.153 284.551L259.972 288.083L257.323 286.612L263.798 283.079L266.153 284.551Z" fill="black"/>
<path d="M274.982 279.547L268.8 283.079L266.151 281.608L272.627 278.076L274.982 279.547Z" fill="black"/>
<path d="M259.975 301.329L253.794 304.861L247.315 301.329L253.791 297.797L259.975 301.329Z" fill="black"/>
<path d="M268.805 296.325L262.327 299.857L256.145 296.325L262.621 292.499L268.805 296.325Z" fill="black"/>
<path d="M277.634 291.027L271.155 294.853L264.974 291.027L271.45 287.495L277.634 291.027Z" fill="black"/>
<path d="M286.465 286.023L279.989 289.555L273.805 286.023L280.28 282.491L286.465 286.023Z" fill="black"/>
<path d="M267.919 306.037L261.738 309.569L255.557 306.037L261.738 302.21L267.919 306.037Z" fill="black"/>
<path d="M276.751 300.74L270.567 304.567L264.091 300.74L270.567 297.208L276.751 300.74Z" fill="black"/>
<path d="M285.581 295.736L279.4 299.268L272.921 295.736L279.397 292.204L285.581 295.736Z" fill="black"/>
<path d="M294.412 290.733L288.228 294.265L281.752 290.733L288.228 286.906L294.412 290.733Z" fill="black"/>
<path d="M276.162 310.452L269.684 314.279L263.502 310.452L269.684 306.92L276.162 310.452Z" fill="black"/>
<path d="M284.993 305.448L278.517 308.98L272.333 305.448L278.514 301.916L284.993 305.448Z" fill="black"/>
<path d="M293.526 300.446L287.344 303.978L281.163 300.446L287.344 296.619L293.526 300.446Z" fill="black"/>
<path d="M293.23 310.158L277.924 318.988L271.744 315.456L286.756 306.625L293.23 310.158Z" fill="black"/>
<path d="M302.065 305.154L295.589 308.686L289.405 305.154L295.586 301.622L302.065 305.154Z" fill="black"/>
<path d="M310.598 300.152L304.416 303.684L289.994 295.442L296.175 291.616L310.598 300.152Z" fill="black"/>
<path d="M285.872 273.662L279.397 277.194L277.042 275.722L283.223 272.19L285.872 273.662Z" fill="black"/>
<path d="M294.997 268.364L288.522 271.896L286.167 270.424L292.348 266.892L294.997 268.364Z" fill="black"/>
<path d="M303.533 263.066L297.352 266.892L294.997 265.42L301.178 261.888L303.533 263.066Z" fill="black"/>
<path d="M294.706 278.372L288.227 282.198L282.046 278.372L288.227 274.839L294.706 278.372Z" fill="black"/>
<path d="M303.536 273.368L297.061 276.9L290.876 273.368L297.058 269.541L303.536 273.368Z" fill="black"/>
<path d="M312.365 268.069L305.89 271.896L299.705 268.364L306.181 264.537L312.365 268.069Z" fill="black"/>
<path d="M302.948 283.081L296.472 286.907L290.288 283.375L296.469 279.549L302.948 283.081Z" fill="black"/>
<path d="M311.777 278.077L305.301 281.904L299.117 278.077L305.592 274.545L311.777 278.077Z" fill="black"/>
<path d="M320.607 273.073L314.131 276.605L307.947 273.073L314.423 269.247L320.607 273.073Z" fill="black"/>
<path d="M322.079 283.964L315.603 287.791L309.419 283.964L315.894 280.432L322.079 283.964Z" fill="black"/>
<path d="M321.49 293.97L315.015 297.502L308.83 293.97L315.011 290.438L321.49 293.97Z" fill="black"/>
<path d="M330.32 288.672L323.845 292.498L317.66 288.966L324.136 285.14L330.32 288.672Z" fill="black"/>
<path d="M339.151 283.67L332.675 287.496L326.491 283.67L332.966 280.137L339.151 283.67Z" fill="black"/>
<path opacity="0.2" d="M244.37 158.577L345.033 210.086L391.242 183.597V73.2202L244.37 158.577Z" fill="white"/>
<g opacity="0.5">
<path d="M358.867 128.26L261.736 184.184V159.755L358.867 103.831V128.26Z" fill="white"/>
<path d="M349.16 173.882L262.914 223.919V193.603L349.16 143.86V173.882Z" fill="white"/>
<path d="M296.468 227.746L264.385 246.288V231.86L296.468 213.028V227.746Z" fill="white"/>
<path d="M337.969 203.316L305.887 221.859V207.431L337.969 188.599V203.316Z" fill="white"/>
</g>
<path d="M643.783 160.047C646.727 160.636 649.67 160.931 652.613 161.519C655.263 178.879 666.158 198.9 671.156 215.383C675.865 230.983 691.76 238.046 664.68 241.284C655.555 242.167 650.257 233.336 645.548 220.68C637.012 196.25 639.661 185.948 642.898 167.993C643.437 165.377 643.733 162.718 643.783 160.047Z" fill="#FFB288"/>
<path d="M662.915 208.32C652.031 197.43 641.428 183.89 641.428 167.113C641.428 134.147 669.684 123.846 698.53 130.032C723.253 135.33 756.22 171.533 733.261 221.276C722.37 244.229 673.805 219.504 662.915 208.32Z" fill="black"/>
<path d="M715.895 156.811C720.605 177.121 700.589 200.079 680.575 200.667C673.847 201.063 667.146 199.519 661.27 196.218C655.394 192.917 650.59 187.998 647.428 182.046C644.266 176.094 642.88 169.359 643.434 162.642C643.988 155.925 646.459 149.508 650.553 144.155C667.329 121.196 709.127 127.671 715.895 156.811Z" fill="black"/>
<path d="M685.873 202.138C691.76 197.428 700.002 197.722 698.824 188.303C699.561 189.435 699.874 190.79 699.707 192.13L722.666 159.753C755.632 150.334 774.47 178.297 781.828 191.835C789.776 206.847 795.957 225.684 783.3 239.224C772.697 250.703 763.579 250.114 762.401 267.774C761.224 282.785 767.405 294.263 753.277 304.271C742.386 312.218 719.429 315.75 707.655 308.097C694.995 299.561 699.413 283.668 691.171 273.366C684.696 265.124 674.397 266.007 669.391 255.117C662.033 237.752 672.039 213.617 685.873 202.138Z" fill="black"/>
<path d="M710.596 192.72C718.249 170.057 729.729 157.694 753.275 170.351C770.936 180.065 790.361 204.788 777.116 225.098C768.58 238.049 751.509 231.868 738.852 237.166C726.789 242.463 722.37 258.358 709.713 261.595C684.107 268.071 683.224 238.932 689.992 223.038C695.881 210.086 706.181 206.26 710.596 192.72Z" fill="black"/>
<path opacity="0.3" d="M541.061 141.505L633.188 194.78L574.909 228.33H546.065L468.655 183.89L541.061 141.505Z" fill="#B8C3DB"/>
<path d="M614.939 162.108L520.457 107.95L451.877 145.036V147.391L474.246 160.342L451.877 170.934V173.291L546.065 227.745L611.407 185.95L591.391 175.648L614.939 162.108Z" fill="url(#paint6_linear_1030_3)"/>
<path d="M616.116 160.636L614.939 159.753H614.35L614.056 159.459L524.872 107.95L520.457 105.595L506.328 113.837L451.877 145.036L524.283 186.831L546.063 199.491L567.559 187.126L569.03 186.537L612.298 161.217L616.116 160.636Z" fill="url(#paint7_linear_1030_3)"/>
<path d="M546.065 199.487V227.744L612.878 189.186C614.1 188.446 615.116 187.412 615.835 186.178C616.554 184.944 616.952 183.55 616.993 182.122V163.578C616.993 160.929 615.227 159.752 612.878 161.223L546.065 199.487Z" fill="url(#paint8_linear_1030_3)"/>
<path d="M546.065 201.843V223.919L610.524 186.833L611.995 185.95V163.874L610.524 164.757L546.065 201.843Z" fill="#92A0A9"/>
<path d="M610.524 164.757V186.831L611.996 185.948V163.874L610.524 164.757Z" fill="url(#paint9_linear_1030_3)"/>
<path d="M454.232 148.862V172.408L546.065 225.389V201.843L454.232 148.862Z" fill="#D0D8E2"/>
<path d="M610.524 186.833L546.065 223.919L454.232 170.938V169.761L451.877 170.938L546.065 225.391L610.524 188.01L611.995 187.127V185.95L610.524 186.833Z" fill="url(#paint10_linear_1030_3)"/>
<path opacity="0.1" d="M454.232 148.862V156.81L546.065 209.789L589.921 183.888L546.065 207.436V203.321L611.995 166.235V163.874L546.065 201.843L454.232 148.862Z" fill="#2EAA83"/>
<path opacity="0.1" d="M454.232 167.112V167.995L472.776 177.715L454.232 167.112Z" fill="#2EAA83"/>
<path opacity="0.1" d="M454.232 161.814V163.285L462.768 167.112L454.232 161.814Z" fill="#2EAA83"/>
<path opacity="0.1" d="M580.502 200.077L546.065 220.387V218.621L580.502 200.077Z" fill="#2EAA83"/>
<path opacity="0.1" d="M553.129 209.202L546.065 213.316V212.145L553.129 209.202Z" fill="#2EAA83"/>
<path opacity="0.1" d="M534.291 207.141L546.065 213.323V212.145L534.291 207.141Z" fill="#2EAA83"/>
<path opacity="0.5" d="M609.937 157.104L559.311 186.243H541.944L469.833 144.447L528.995 110.305L609.937 157.104Z" fill="#89AFDE"/>
<path d="M601.401 125.609L523.402 80.5773L521.345 79.4L508.685 86.7586L463.063 112.949C462.537 113.181 462.117 113.601 461.885 114.126C460.582 115.497 459.756 117.252 459.531 119.13V137.962C459.503 138.423 459.597 138.884 459.804 139.297C460.01 139.711 460.322 140.062 460.708 140.317L540.466 186.233C541.349 185.35 542.232 183.584 543.115 182.701V158.87L601.401 125.609Z" fill="url(#paint11_linear_1030_3)"/>
<path d="M459.825 119.135V137.967C459.797 138.428 459.891 138.889 460.098 139.302C460.305 139.715 460.617 140.067 461.002 140.322L540.761 186.238C541.644 185.355 542.527 183.589 543.41 182.706V160.931L478.957 123.55L463.946 114.72L462.474 113.837L461.885 114.425C461.221 115.417 460.723 116.511 460.414 117.663C460.198 117.838 460.03 118.065 459.927 118.322C459.824 118.58 459.789 118.86 459.825 119.135Z" fill="url(#paint12_linear_1030_3)"/>
<path opacity="0.2" d="M459.825 117.958L543.122 165.934V161.82L461.297 114.72C460.632 115.711 460.135 116.805 459.825 117.958Z" fill="white"/>
<path d="M543.122 159.16L601.401 125.611V127.377L599.634 128.26V150.628L601.401 150.923V152.689L543.122 186.238C541.064 187.415 539.589 186.532 539.589 184.181V165.051C539.665 163.859 540.025 162.701 540.639 161.676C541.254 160.651 542.105 159.788 543.122 159.16Z" fill="url(#paint13_linear_1030_3)"/>
<path d="M600.223 127.671V151.217L544.593 183.301V159.753L600.223 127.671Z" fill="#92A0A9"/>
<path d="M545.771 159.164V182.416L544.593 183.299V159.753L545.771 159.164Z" fill="black"/>
<path d="M600.223 150.334L601.401 150.923L544.593 183.883V183.295L600.223 151.212V150.334Z" fill="black"/>
<path opacity="0.1" d="M544.593 163.874V159.76L600.223 127.671V132.675L544.593 163.874Z" fill="#2EAA83"/>
<path opacity="0.1" d="M600.221 138.268L572.554 152.102L600.221 136.796V138.268Z" fill="#2EAA83"/>
<path opacity="0.1" d="M600.223 142.977L585.211 149.747L600.223 141.505V142.977Z" fill="#2EAA83"/>
<path opacity="0.5" d="M222.59 394.043L129.874 447.318L113.979 447.613L51.2867 412.587L86.6067 392.866L157.247 358.135L222.59 394.043Z" fill="#89AFDE"/>
<path d="M45.1055 377.561L102.501 410.827L112.215 417.597L114.862 446.434C113.096 444.376 113.979 446.139 114.862 447.022L206.106 394.336C206.584 394.086 206.977 393.702 207.239 393.231C207.5 392.761 207.618 392.224 207.578 391.687V369.908C207.497 368.908 207.299 367.92 206.989 366.965C206.576 365.977 205.977 365.077 205.223 364.316C205.224 364.277 205.217 364.238 205.203 364.202C205.188 364.166 205.167 364.133 205.139 364.106C205.112 364.078 205.079 364.056 205.043 364.042C205.007 364.028 204.968 364.02 204.929 364.021L204.635 363.727C204.34 363.433 203.752 363.138 203.457 362.844L141.353 327.23L138.999 325.758L136.644 324.581L134.587 325.758L133.115 326.641L45.1055 377.561Z" fill="url(#paint14_linear_1030_3)"/>
<path d="M207.578 370.203V391.983C207.578 393.454 206.989 394.337 206.106 394.632L114.862 447.318C113.979 446.141 112.805 444.375 111.919 443.204V417.883L185.797 375.205L203.163 365.197L204.929 364.314C205.223 364.608 205.518 364.903 205.518 365.197C206.337 366.245 206.937 367.446 207.284 368.729C207.551 369.171 207.655 369.692 207.578 370.203Z" fill="url(#paint15_linear_1030_3)"/>
<path opacity="0.2" d="M113.096 416.708V421.417L206.99 367.259C206.477 366.168 205.781 365.172 204.932 364.316L204.635 364.021L113.096 416.708Z" fill="white"/>
<path d="M111.919 415.825L45.1055 377.267V379.033L47.1628 380.21L46.8684 405.817L44.8112 406.406V408.172L111.919 447.024C114.274 448.201 116.033 447.318 116.033 444.669V422.889C115.859 421.495 115.404 420.151 114.697 418.937C113.99 417.723 113.045 416.665 111.919 415.825Z" fill="black"/>
<path d="M109.564 416.708V443.197L46.283 406.7V379.916L109.564 416.708Z" fill="#92A0A9"/>
<path d="M108.681 416.119V442.903L110.153 443.492V416.708L108.681 416.119Z" fill="url(#paint16_linear_1030_3)"/>
<path d="M46.2829 405.817L45.1055 406.7L110.146 444.375V443.492L46.2765 406.7L46.2829 405.817Z" fill="url(#paint17_linear_1030_3)"/>
<path opacity="0.1" d="M110.153 421.417V416.708L46.283 379.916V385.803L110.153 421.417Z" fill="#2EAA83"/>
<path opacity="0.1" d="M46.283 392.277L78.3651 407.877L46.283 390.511V392.277Z" fill="#2EAA83"/>
<path opacity="0.1" d="M46.283 397.281L63.6494 405.228L46.283 395.809V397.281Z" fill="#2EAA83"/>
<path opacity="0.5" d="M54.5247 374.618L117.219 410.821H125.753L204.929 364.612C204.93 364.573 204.923 364.534 204.909 364.498C204.894 364.462 204.872 364.429 204.845 364.402C204.817 364.374 204.785 364.352 204.748 364.338C204.712 364.323 204.674 364.316 204.635 364.317L204.34 364.023C204.046 363.729 203.457 363.434 203.163 363.14L141.354 327.23L138.999 325.758L54.5247 374.618Z" fill="#89AFDE"/>
<path d="M78.365 361.374L54.5245 347.54L55.9963 346.657H56.5818L138.999 298.974L200.515 332.234V334.291L177.852 347.537L200.515 359.899V361.956L116.041 410.522L57.7623 373.441L78.365 361.374Z" fill="black"/>
<path d="M200.516 332.234L176.086 346.362L129.58 373.146L116.04 381.094L102.5 373.146L100.145 371.675L80.4255 360.192L56.8794 346.652H55.9964L53.6416 346.358L54.2303 346.063L54.5246 345.769L113.687 311.631L139.007 297.208L200.516 332.234Z" fill="url(#paint18_linear_1030_3)"/>
<g filter="url(#filter0_d_1030_3)">
<path d="M90.2897 367.008L82.1086 353.258L91.6962 347.553L93.302 350.252L87.0379 353.979L88.7156 356.799L94.4897 353.364L96.0995 356.07L90.3255 359.505L92.0073 362.332L98.2714 358.605L99.8773 361.304L90.2897 367.008ZM104.97 358.51C104.312 358.902 103.662 359.139 103.022 359.224C102.383 359.301 101.782 359.204 101.221 358.932C100.661 358.653 100.178 358.173 99.7735 357.493C99.4326 356.92 99.2457 356.376 99.2127 355.863C99.1798 355.349 99.2669 354.864 99.474 354.407C99.6812 353.951 99.978 353.523 100.364 353.123C100.748 352.719 101.189 352.339 101.686 351.982C102.24 351.58 102.679 351.243 103.003 350.972C103.323 350.696 103.531 350.454 103.626 350.246C103.722 350.031 103.708 349.819 103.582 349.608L103.562 349.575C103.357 349.23 103.08 349.034 102.731 348.988C102.382 348.941 102.006 349.037 101.603 349.277C101.169 349.535 100.876 349.837 100.724 350.182C100.571 350.527 100.558 350.887 100.684 351.26L97.5916 352.955C97.3083 352.275 97.2059 351.578 97.2845 350.865C97.3648 350.144 97.6479 349.448 98.1336 348.778C98.6211 348.1 99.3259 347.486 100.248 346.938C100.906 346.546 101.559 346.264 102.207 346.09C102.853 345.912 103.469 345.848 104.057 345.899C104.642 345.945 105.173 346.114 105.65 346.406C106.131 346.695 106.534 347.113 106.859 347.659L111.029 354.668L107.941 356.506L107.086 355.069L107.005 355.117C107.03 355.575 106.97 356.011 106.828 356.423C106.689 356.832 106.464 357.212 106.151 357.562C105.842 357.909 105.449 358.225 104.97 358.51ZM104.705 355.758C105.059 355.548 105.334 355.287 105.531 354.976C105.732 354.663 105.843 354.33 105.864 353.978C105.882 353.622 105.792 353.276 105.592 352.94L105.009 351.96C104.944 352.065 104.856 352.178 104.746 352.298C104.64 352.415 104.52 352.539 104.384 352.668C104.249 352.797 104.106 352.924 103.957 353.049C103.807 353.175 103.663 353.294 103.524 353.407C103.245 353.64 103.026 353.873 102.868 354.106C102.714 354.337 102.628 354.57 102.61 354.805C102.594 355.032 102.653 355.258 102.786 355.482C102.989 355.822 103.264 356.01 103.612 356.045C103.965 356.078 104.329 355.982 104.705 355.758ZM113.037 353.474L106.901 343.161L110.09 341.264L111.209 343.144L111.316 343.08C111.099 342.288 111.105 341.599 111.333 341.015C111.558 340.427 111.953 339.964 112.517 339.629C112.669 339.538 112.833 339.456 113.007 339.383C113.179 339.305 113.346 339.245 113.509 339.202L115.207 342.056C115.018 342.095 114.787 342.175 114.513 342.296C114.244 342.414 114.011 342.531 113.814 342.648C113.424 342.88 113.125 343.176 112.915 343.537C112.708 343.891 112.606 344.276 112.611 344.691C112.617 345.099 112.743 345.509 112.988 345.921L116.32 351.521L113.037 353.474ZM121.16 334.678L122.598 337.095L116.092 340.966L114.654 338.548L121.16 334.678ZM114.547 335.267L117.83 333.313L123.506 342.854C123.626 343.055 123.755 343.2 123.892 343.288C124.031 343.369 124.179 343.399 124.336 343.378C124.491 343.353 124.656 343.288 124.83 343.184C124.956 343.11 125.081 343.02 125.206 342.915C125.334 342.803 125.428 342.717 125.489 342.656L127.396 344.731C127.266 344.869 127.077 345.056 126.831 345.294C126.589 345.529 126.276 345.773 125.893 346.025C125.144 346.519 124.431 346.822 123.752 346.935C123.076 347.04 122.455 346.949 121.89 346.661C121.329 346.371 120.845 345.874 120.439 345.17L114.547 335.267ZM128.976 336.027L132.475 341.908L129.192 343.862L121.011 330.112L124.187 328.222L127.359 333.553L127.473 333.485C127.327 332.711 127.412 331.988 127.727 331.315C128.047 330.64 128.592 330.074 129.362 329.616C130.087 329.184 130.814 328.97 131.542 328.973C132.269 328.971 132.953 329.173 133.594 329.579C134.24 329.983 134.793 330.575 135.252 331.357L139.163 337.93L135.879 339.883L132.352 333.955C132.016 333.379 131.606 333.017 131.123 332.868C130.641 332.718 130.135 332.801 129.607 333.115C129.263 333.32 129.003 333.577 128.83 333.887C128.658 334.189 128.581 334.523 128.598 334.888C128.62 335.251 128.746 335.63 128.976 336.027ZM146.978 320.244C146.64 319.778 146.213 319.514 145.697 319.451C145.183 319.381 144.601 319.539 143.952 319.926C143.523 320.181 143.198 320.45 142.978 320.733C142.758 321.015 142.635 321.297 142.609 321.579C142.58 321.857 142.638 322.122 142.783 322.376C142.897 322.587 143.045 322.744 143.227 322.848C143.415 322.948 143.632 323.007 143.878 323.024C144.126 323.034 144.402 323.009 144.706 322.95C145.01 322.89 145.339 322.801 145.692 322.681L147.033 322.247C147.802 321.99 148.519 321.83 149.184 321.767C149.855 321.702 150.468 321.734 151.024 321.864C151.584 321.991 152.088 322.221 152.535 322.555C152.982 322.889 153.372 323.33 153.704 323.878C154.216 324.749 154.44 325.625 154.376 326.505C154.312 327.386 153.971 328.234 153.354 329.05C152.741 329.863 151.861 330.611 150.715 331.292C149.565 331.977 148.46 332.401 147.4 332.565C146.34 332.729 145.364 332.601 144.471 332.18C143.579 331.76 142.806 331.017 142.153 329.95L145.336 328.057C145.626 328.484 145.965 328.783 146.351 328.953C146.737 329.123 147.159 329.175 147.616 329.109C148.078 329.04 148.553 328.861 149.041 328.57C149.489 328.304 149.833 328.017 150.075 327.71C150.321 327.4 150.465 327.087 150.507 326.771C150.549 326.455 150.49 326.157 150.329 325.877C150.171 325.62 149.958 325.446 149.692 325.356C149.424 325.261 149.086 325.244 148.68 325.304C148.275 325.357 147.787 325.474 147.216 325.656L145.58 326.175C144.227 326.611 143.027 326.728 141.98 326.526C140.93 326.321 140.097 325.695 139.481 324.649C138.971 323.802 138.756 322.921 138.836 322.006C138.916 321.092 139.257 320.213 139.859 319.37C140.46 318.528 141.282 317.796 142.325 317.176C143.391 316.542 144.423 316.173 145.422 316.07C146.423 315.959 147.333 316.099 148.153 316.49C148.974 316.88 149.643 317.501 150.16 318.35L146.978 320.244ZM162.685 324.198C161.597 324.845 160.531 325.177 159.486 325.192C158.445 325.205 157.48 324.937 156.589 324.388C155.696 323.835 154.937 323.032 154.311 321.98C153.683 320.924 153.34 319.874 153.282 318.829C153.226 317.778 153.452 316.798 153.96 315.889C154.472 314.978 155.268 314.202 156.347 313.56C157.3 312.993 158.233 312.671 159.145 312.595C160.062 312.516 160.907 312.674 161.681 313.068C162.457 313.455 163.107 314.065 163.633 314.898L160.565 316.723C160.188 316.232 159.763 315.925 159.289 315.801C158.819 315.674 158.35 315.75 157.88 316.03C157.499 316.256 157.23 316.562 157.071 316.947C156.91 317.328 156.872 317.775 156.959 318.287C157.047 318.792 157.273 319.349 157.635 319.957C157.997 320.566 158.382 321.034 158.789 321.362C159.197 321.682 159.609 321.865 160.023 321.909C160.435 321.949 160.831 321.856 161.211 321.629C161.516 321.448 161.746 321.224 161.901 320.955C162.061 320.684 162.143 320.378 162.146 320.037C162.146 319.691 162.059 319.325 161.883 318.939L164.951 317.113C165.426 317.982 165.656 318.852 165.64 319.722C165.629 320.589 165.375 321.41 164.878 322.184C164.383 322.951 163.652 323.623 162.685 324.198ZM169.036 320.155L162.901 309.843L166.184 307.889L172.32 318.202L169.036 320.155ZM163.83 307.662C163.369 307.936 162.883 308.02 162.37 307.913C161.855 307.801 161.469 307.528 161.21 307.094C160.955 306.664 160.902 306.199 161.052 305.697C161.2 305.191 161.504 304.801 161.965 304.527C162.43 304.25 162.918 304.169 163.429 304.283C163.941 304.39 164.325 304.659 164.581 305.088C164.839 305.523 164.895 305.993 164.747 306.499C164.602 306.997 164.296 307.385 163.83 307.662ZM179.346 314.285C178.267 314.927 177.21 315.268 176.173 315.309C175.139 315.343 174.175 315.089 173.283 314.547C172.393 313.998 171.622 313.175 170.969 312.078C170.335 311.013 169.992 309.957 169.939 308.91C169.883 307.858 170.105 306.883 170.607 305.985C171.106 305.082 171.875 304.321 172.913 303.703C173.648 303.267 174.387 302.981 175.131 302.847C175.876 302.713 176.603 302.739 177.312 302.922C178.022 303.106 178.695 303.454 179.333 303.966C179.968 304.473 180.537 305.149 181.041 305.995L181.528 306.814L172.565 312.147L171.43 310.24L177.339 306.725C177.126 306.379 176.858 306.117 176.535 305.94C176.211 305.762 175.863 305.682 175.491 305.697C175.12 305.706 174.753 305.818 174.391 306.033C174.024 306.252 173.744 306.53 173.552 306.869C173.357 307.203 173.258 307.562 173.256 307.945C173.251 308.324 173.349 308.693 173.55 309.052L174.705 310.992C174.955 311.413 175.258 311.733 175.612 311.952C175.964 312.167 176.344 312.271 176.753 312.264C177.161 312.258 177.575 312.129 177.996 311.879C178.287 311.706 178.527 311.509 178.716 311.287C178.906 311.065 179.039 310.825 179.116 310.568C179.193 310.31 179.206 310.041 179.155 309.762L182.221 308.056C182.498 308.807 182.573 309.559 182.446 310.313C182.321 311.06 181.999 311.777 181.479 312.461C180.956 313.142 180.245 313.75 179.346 314.285ZM185.585 302.346L189.084 308.227L185.801 310.181L179.665 299.868L182.787 298.01L183.914 299.904L184.028 299.836C183.881 299.069 183.976 298.343 184.313 297.657C184.648 296.967 185.196 296.395 185.957 295.943C186.682 295.511 187.408 295.3 188.135 295.31C188.864 295.313 189.549 295.517 190.191 295.924C190.835 296.323 191.384 296.911 191.841 297.688L195.751 304.261L192.468 306.214L188.941 300.285C188.605 299.71 188.193 299.349 187.706 299.202C187.223 299.053 186.722 299.133 186.203 299.442C185.858 299.647 185.599 299.904 185.425 300.214C185.254 300.516 185.179 300.848 185.201 301.211C185.227 301.571 185.355 301.949 185.585 302.346ZM202.714 300.382C201.626 301.029 200.56 301.36 199.515 301.376C198.474 301.389 197.508 301.121 196.618 300.572C195.725 300.019 194.966 299.216 194.34 298.164C193.711 297.108 193.368 296.057 193.311 295.013C193.255 293.961 193.481 292.981 193.989 292.073C194.501 291.162 195.297 290.386 196.376 289.744C197.329 289.177 198.262 288.855 199.174 288.779C200.091 288.7 200.936 288.858 201.71 289.252C202.486 289.639 203.136 290.249 203.662 291.081L200.594 292.907C200.217 292.416 199.791 292.108 199.318 291.984C198.848 291.858 198.379 291.934 197.909 292.214C197.528 292.44 197.259 292.746 197.1 293.131C196.939 293.512 196.901 293.958 196.988 294.471C197.076 294.976 197.301 295.532 197.664 296.141C198.026 296.75 198.41 297.218 198.817 297.546C199.226 297.866 199.638 298.048 200.052 298.093C200.464 298.133 200.86 298.039 201.24 297.813C201.544 297.632 201.774 297.407 201.93 297.139C202.09 296.868 202.171 296.562 202.175 296.221C202.175 295.875 202.087 295.509 201.912 295.122L204.98 293.297C205.455 294.166 205.684 295.036 205.669 295.905C205.657 296.773 205.403 297.594 204.907 298.368C204.412 299.135 203.681 299.806 202.714 300.382ZM214.002 293.666C212.923 294.307 211.865 294.649 210.829 294.69C209.795 294.723 208.831 294.469 207.939 293.927C207.049 293.378 206.278 292.555 205.625 291.459C204.991 290.393 204.648 289.337 204.594 288.29C204.539 287.239 204.761 286.264 205.263 285.365C205.762 284.462 206.531 283.702 207.569 283.084C208.303 282.647 209.043 282.362 209.787 282.228C210.532 282.094 211.259 282.119 211.968 282.303C212.678 282.487 213.351 282.835 213.989 283.346C214.624 283.853 215.193 284.53 215.696 285.376L216.184 286.195L207.221 291.528L206.086 289.621L211.994 286.105C211.782 285.759 211.514 285.497 211.191 285.32C210.867 285.143 210.519 285.062 210.147 285.078C209.776 285.086 209.409 285.198 209.047 285.414C208.68 285.632 208.4 285.911 208.208 286.25C208.012 286.584 207.914 286.943 207.911 287.326C207.907 287.704 208.005 288.073 208.206 288.432L209.361 290.373C209.611 290.793 209.913 291.113 210.268 291.333C210.62 291.547 211 291.651 211.409 291.645C211.817 291.638 212.231 291.51 212.652 291.26C212.943 291.086 213.183 290.889 213.372 290.667C213.562 290.446 213.695 290.206 213.772 289.948C213.848 289.69 213.862 289.422 213.811 289.143L216.877 287.437C217.154 288.187 217.229 288.939 217.102 289.694C216.977 290.441 216.655 291.157 216.135 291.842C215.612 292.522 214.901 293.13 214.002 293.666Z" fill="black"/>
</g>
<path d="M116.04 381.094V410.824L55.9963 376.384C54.8984 375.677 53.9808 374.723 53.3164 373.599C52.6521 372.475 52.2595 371.211 52.1698 369.908V348.717C52.1698 346.362 53.9359 345.479 55.9963 346.66L116.04 381.094Z" fill="url(#paint19_linear_1030_3)"/>
<path d="M116.043 383.154V407.289L58.351 374.029L57.1736 373.146V349.011L58.351 349.894L116.043 383.154Z" fill="#92A0A9"/>
<path d="M58.351 349.894V374.029L57.1736 374.324V349.003L58.351 349.894Z" fill="url(#paint20_linear_1030_3)"/>
<path d="M198.453 335.766V361.086L116.04 408.466V383.146L198.453 335.766Z" fill="#92A0A9"/>
<path d="M58.351 374.029L116.043 407.289L198.457 359.901V358.723L200.514 359.901L116.043 408.466L58.351 375.207L57.1736 374.324L58.351 374.029Z" fill="url(#paint21_linear_1030_3)"/>
<path opacity="0.1" d="M198.455 335.766V342.83L116.043 390.218L76.8948 366.965L116.043 387.863V384.331L57.1736 351.072V349.015L116.043 383.157L198.455 335.766Z" fill="#2EAA83"/>
<path opacity="0.1" d="M198.452 356.37V357.253L181.677 365.789L198.452 356.37Z" fill="#2EAA83"/>
<path opacity="0.1" d="M198.455 351.66V352.838L190.802 356.37L198.455 351.66Z" fill="#2EAA83"/>
<path opacity="0.1" d="M85.135 385.803L116.04 404.053V402.286L85.135 385.803Z" fill="#2EAA83"/>
<path opacity="0.1" d="M109.86 394.045L116.041 397.577V396.694L109.86 394.045Z" fill="#2EAA83"/>
<path opacity="0.1" d="M126.642 391.984L116.04 397.577V396.694L126.642 391.984Z" fill="#2EAA83"/>
<defs>
<filter id="filter0_d_1030_3" x="77.5732" y="275.909" width="145.327" height="99.3006" filterUnits="userSpaceOnUse" color-interpolation-filters="sRGB">
<feFlood flood-opacity="0" result="BackgroundImageFix"/>
<feColorMatrix in="SourceAlpha" type="matrix" values="0 0 0 0 0 0 0 0 0 0 0 0 0 0 0 0 0 0 127 0" result="hardAlpha"/>
<feOffset dy="4"/>
<feGaussianBlur stdDeviation="2"/>
<feComposite in2="hardAlpha" operator="out"/>
<feColorMatrix type="matrix" values="0 0 0 0 0 0 0 0 0 0 0 0 0 0 0 0 0 0 0.25 0"/>
<feBlend mode="normal" in2="BackgroundImageFix" result="effect1_dropShadow_1030_3"/>
<feBlend mode="normal" in="SourceGraphic" in2="effect1_dropShadow_1030_3" result="shape"/>
</filter>
<linearGradient id="paint0_linear_1030_3" x1="257.772" y1="346.657" x2="406.412" y2="346.657" gradientUnits="userSpaceOnUse">
<stop stop-color="#1112C5"/>
<stop offset="1" stop-color="#236AEB"/>
</linearGradient>
<linearGradient id="paint1_linear_1030_3" x1="257.772" y1="345.038" x2="406.412" y2="345.038" gradientUnits="userSpaceOnUse">
<stop stop-color="#236AEB"/>
<stop offset="1" stop-color="#1112C5"/>
</linearGradient>
<linearGradient id="paint2_linear_1030_3" x1="239.414" y1="349.791" x2="259.372" y2="349.791" gradientUnits="userSpaceOnUse">
<stop stop-color="#1112C5"/>
<stop offset="1" stop-color="#236AEB"/>
</linearGradient>
<linearGradient id="paint3_linear_1030_3" x1="238.985" y1="346.969" x2="259.436" y2="346.969" gradientUnits="userSpaceOnUse">
<stop stop-color="#133FC2"/>
<stop offset="1" stop-color="#080751"/>
</linearGradient>
<linearGradient id="paint4_linear_1030_3" x1="182.095" y1="380.569" x2="291.335" y2="380.569" gradientUnits="userSpaceOnUse">
<stop stop-color="#63A4FF"/>
<stop offset="1" stop-color="#99C3FF"/>
</linearGradient>
<linearGradient id="paint5_linear_1030_3" x1="3572.63" y1="280.159" x2="3772.43" y2="120.051" gradientUnits="userSpaceOnUse">
<stop stop-color="#460FC4"/>
<stop offset="0.492" stop-color="#5B6FF9"/>
<stop offset="1" stop-color="#4CB5E4"/>
</linearGradient>
<linearGradient id="paint6_linear_1030_3" x1="8254.37" y1="167.728" x2="8417.26" y2="167.728" gradientUnits="userSpaceOnUse">
<stop stop-color="#486DFF"/>
<stop offset="1" stop-color="#3ED6F6"/>
</linearGradient>
<linearGradient id="paint7_linear_1030_3" x1="8254.37" y1="152.543" x2="8418.61" y2="152.543" gradientUnits="userSpaceOnUse">
<stop stop-color="#3ED6F6"/>
<stop offset="0.508" stop-color="#486DFF"/>
<stop offset="1" stop-color="#3100D6"/>
</linearGradient>
<linearGradient id="paint8_linear_1030_3" x1="8347.92" y1="194.029" x2="8418.99" y2="194.029" gradientUnits="userSpaceOnUse">
<stop offset="0.003" stop-color="#410DD0"/>
<stop offset="1" stop-color="#436AFF"/>
</linearGradient>
<linearGradient id="paint9_linear_1030_3" x1="8414.23" y1="163.782" x2="8414.23" y2="186.717" gradientUnits="userSpaceOnUse">
<stop stop-color="#3100D6"/>
<stop offset="0.492" stop-color="#486DFF"/>
<stop offset="1" stop-color="#3ED6F6"/>
</linearGradient>
<linearGradient id="paint10_linear_1030_3" x1="8254.42" y1="197.52" x2="8414.7" y2="197.52" gradientUnits="userSpaceOnUse">
<stop stop-color="#3100D6"/>
<stop offset="0.492" stop-color="#486DFF"/>
<stop offset="1" stop-color="#3ED6F6"/>
</linearGradient>
<linearGradient id="paint11_linear_1030_3" x1="8262.5" y1="132.923" x2="8404.23" y2="132.923" gradientUnits="userSpaceOnUse">
<stop stop-color="#3ED6F6"/>
<stop offset="0.508" stop-color="#486DFF"/>
<stop offset="1" stop-color="#3100D6"/>
</linearGradient>
<linearGradient id="paint12_linear_1030_3" x1="8299.19" y1="158.87" x2="8311.68" y2="132.167" gradientUnits="userSpaceOnUse">
<stop/>
<stop offset="0.492" stop-color="#486DFF"/>
<stop offset="1" stop-color="#3ED6F6"/>
</linearGradient>
<linearGradient id="paint13_linear_1030_3" x1="8342.25" y1="156.123" x2="8404" y2="156.123" gradientUnits="userSpaceOnUse">
<stop offset="0.003" stop-color="#410DD0"/>
<stop offset="0.511" stop-color="#436AFF"/>
<stop offset="1" stop-color="#5475FF"/>
</linearGradient>
<linearGradient id="paint14_linear_1030_3" x1="685.765" y1="423.881" x2="698.449" y2="385.221" gradientUnits="userSpaceOnUse">
<stop offset="0.003" stop-color="#410DD0"/>
<stop offset="0.511" stop-color="#436AFF"/>
<stop offset="1" stop-color="#5475FF"/>
</linearGradient>
<linearGradient id="paint15_linear_1030_3" x1="676.073" y1="416.192" x2="693.844" y2="374.347" gradientUnits="userSpaceOnUse">
<stop offset="0.003" stop-color="#410DD0"/>
<stop offset="0.736" stop-color="#436AFF"/>
<stop offset="1" stop-color="#5475FF"/>
</linearGradient>
<linearGradient id="paint16_linear_1030_3" x1="732.097" y1="416.064" x2="732.097" y2="443.546" gradientUnits="userSpaceOnUse">
<stop offset="0.003" stop-color="#410DD0"/>
<stop offset="0.511" stop-color="#436AFF"/>
<stop offset="1" stop-color="#5475FF"/>
</linearGradient>
<linearGradient id="paint17_linear_1030_3" x1="731.353" y1="425.134" x2="796.329" y2="425.134" gradientUnits="userSpaceOnUse">
<stop stop-color="#5475FF"/>
<stop offset="0.489" stop-color="#436AFF"/>
<stop offset="0.997" stop-color="#410DD0"/>
</linearGradient>
<linearGradient id="paint18_linear_1030_3" x1="641.137" y1="338.899" x2="788.011" y2="338.899" gradientUnits="userSpaceOnUse">
<stop stop-color="#2EAA83"/>
<stop offset="0.492" stop-color="#486DFF"/>
<stop offset="1" stop-color="#3ED6F6"/>
</linearGradient>
<linearGradient id="paint19_linear_1030_3" x1="725.423" y1="378.287" x2="789.037" y2="378.287" gradientUnits="userSpaceOnUse">
<stop stop-color="#1F63FF"/>
<stop offset="0.477" stop-color="#31E7FF"/>
<stop offset="1" stop-color="#46DDFF"/>
</linearGradient>
<linearGradient id="paint20_linear_1030_3" x1="783.915" y1="344.547" x2="770.852" y2="351.042" gradientUnits="userSpaceOnUse">
<stop stop-color="#3100D6"/>
<stop offset="0.492" stop-color="#486DFF"/>
<stop offset="1" stop-color="#3ED6F6"/>
</linearGradient>
<linearGradient id="paint21_linear_1030_3" x1="641.141" y1="383.595" x2="784.482" y2="383.595" gradientUnits="userSpaceOnUse">
<stop stop-color="#3100D6"/>
<stop offset="0.492" stop-color="#486DFF"/>
<stop offset="1" stop-color="#3ED6F6"/>
</linearGradient>
</defs>
</svg>
